<svg xmlns="http://www.w3.org/2000/svg" width="275" height="183" viewBox="0 0 275 183">
<g>
<path d="M 128.41 74.25 C129.01,78.15 128.65,79.14 127.61,76.44 C127.28,75.56 126.50,75.19 125.85,75.59 C125.03,76.10 124.88,75.60 125.33,73.91 C125.68,72.58 125.98,70.85 125.99,70.05 C126.01,67.30 127.82,70.44 128.41,74.25 Z" fill="rgb(20,10,0)"/>
<path d="M 195.00 37.00 L 195.00 147.00 L 138.17 147.00 C106.91,147.00 81.03,146.70 80.67,146.33 C80.30,145.97 80.00,121.22 80.00,91.33 L 80.00 37.00 ZM 105.61 116.18 C105.89,116.63 107.86,117.00 109.99,117.00 C113.67,117.00 115.18,115.57 115.45,111.83 C115.48,111.47 115.84,110.83 116.25,110.42 C116.66,110.00 117.00,108.60 117.00,107.30 C117.00,106.00 117.73,103.82 118.62,102.46 C120.07,100.25 120.91,100.00 126.99,100.00 C131.19,100.00 134.15,100.47 134.78,101.25 C135.35,101.94 136.58,105.20 137.53,108.50 C139.74,116.23 140.43,117.00 145.25,117.00 C149.23,117.00 149.26,116.97 148.68,113.75 C147.77,108.71 147.26,106.72 146.11,103.75 C145.53,102.24 145.26,101.00 145.51,101.00 C145.76,101.00 145.10,98.80 144.04,96.11 C142.98,93.42 142.38,90.95 142.70,90.63 C143.02,90.31 142.79,89.46 142.19,88.73 C141.59,88.01 140.86,86.04 140.56,84.36 C140.27,82.68 139.34,79.66 138.50,77.65 C137.66,75.64 137.18,74.00 137.44,74.00 C137.69,74.00 137.27,72.49 136.49,70.64 C135.25,67.67 134.67,65.53 133.61,60.00 C133.40,58.91 131.70,58.42 127.41,58.21 L 121.50 57.93 L 113.30 86.64 C108.79,102.44 105.33,115.73 105.61,116.18 ZM 157.71 116.38 C158.11,116.77 160.24,116.96 162.46,116.80 L 166.50 116.50 L 167.04 73.00 L 157.00 73.00 L 157.00 94.33 C157.00,106.07 157.32,115.99 157.71,116.38 ZM 128.41 74.25 C128.12,72.34 127.51,70.60 126.98,69.69 C127.00,69.69 127.02,69.70 127.04,69.72 C128.27,71.09 132.22,88.84 131.54,89.94 C131.18,90.52 128.92,91.00 126.52,91.00 C122.05,91.00 120.68,89.77 122.07,87.00 C122.48,86.18 123.61,81.77 124.58,77.22 C124.76,76.40 124.93,75.62 125.11,74.89 C124.98,75.78 125.22,75.98 125.85,75.59 C126.50,75.19 127.28,75.56 127.61,76.44 C128.65,79.14 129.01,78.15 128.41,74.25 ZM 159.69 67.30 C160.69,67.56 161.78,67.82 162.12,67.88 C163.55,68.15 168.00,63.70 168.00,62.00 C168.00,57.04 160.29,55.11 157.50,59.37 C155.64,62.20 156.85,66.56 159.69,67.30 Z" fill="rgb(37,18,0)"/>
<path d="M 200.00 31.00 L 200.00 153.00 L 138.17 153.00 C104.16,153.00 76.03,152.70 75.67,152.33 C75.30,151.97 75.00,124.52 75.00,91.33 L 75.00 31.00 ZM 195.00 37.00 L 80.00 37.00 L 80.00 91.33 C80.00,121.22 80.30,145.97 80.67,146.33 C81.03,146.70 106.91,147.00 138.17,147.00 L 195.00 147.00 ZM 105.61 116.18 C105.33,115.73 108.79,102.44 113.30,86.64 L 121.50 57.93 L 127.41 58.21 C131.70,58.42 133.40,58.91 133.61,60.00 C134.67,65.53 135.25,67.67 136.49,70.64 C137.27,72.49 137.69,74.00 137.44,74.00 C137.18,74.00 137.66,75.64 138.50,77.65 C139.34,79.66 140.27,82.68 140.56,84.36 C140.86,86.04 141.59,88.01 142.19,88.73 C142.79,89.46 143.02,90.31 142.70,90.63 C142.38,90.95 142.98,93.42 144.04,96.11 C145.10,98.80 145.76,101.00 145.51,101.00 C145.26,101.00 145.53,102.24 146.11,103.75 C147.26,106.72 147.77,108.71 148.68,113.75 C149.26,116.97 149.23,117.00 145.25,117.00 C140.43,117.00 139.74,116.23 137.53,108.50 C136.58,105.20 135.35,101.94 134.78,101.25 C134.15,100.47 131.19,100.00 126.99,100.00 C120.91,100.00 120.07,100.25 118.62,102.46 C117.73,103.82 117.00,106.00 117.00,107.30 C117.00,108.60 116.66,110.00 116.25,110.42 C115.84,110.83 115.48,111.47 115.45,111.83 C115.18,115.57 113.67,117.00 109.99,117.00 C107.86,117.00 105.89,116.63 105.61,116.18 ZM 157.71 116.38 C157.32,115.99 157.00,106.07 157.00,94.33 L 157.00 73.00 L 167.04 73.00 L 166.50 116.50 L 162.46 116.80 C160.24,116.96 158.11,116.77 157.71,116.38 ZM 125.33 73.91 C125.22,74.30 125.15,74.62 125.11,74.89 C124.93,75.62 124.76,76.40 124.58,77.22 C123.61,81.77 122.48,86.18 122.07,87.00 C120.68,89.77 122.05,91.00 126.52,91.00 C128.92,91.00 131.18,90.52 131.54,89.94 C132.22,88.84 128.27,71.09 127.04,69.72 C127.02,69.70 127.00,69.69 126.98,69.69 C126.46,68.77 126.00,68.68 125.99,70.05 C125.98,70.85 125.68,72.58 125.33,73.91 ZM 159.69 67.30 C156.85,66.56 155.64,62.20 157.50,59.37 C160.29,55.11 168.00,57.04 168.00,62.00 C168.00,63.70 163.55,68.15 162.12,67.88 C161.78,67.82 160.69,67.56 159.69,67.30 Z" fill="rgb(252,122,0)"/>
<path d="M 0.00 91.50 L 0.00 0.00 L 137.50 0.00 L 275.00 0.00 L 275.00 91.50 L 275.00 183.00 L 137.50 183.00 L 0.00 183.00 L 0.00 91.50 ZM 200.00 92.00 L 200.00 31.00 L 137.50 31.00 L 75.00 31.00 L 75.00 91.33 C75.00,124.52 75.30,151.97 75.67,152.33 C76.03,152.70 104.16,153.00 138.17,153.00 L 200.00 153.00 L 200.00 92.00 Z" fill="rgb(255,254,254)"/>
</g>
</svg>