<svg xmlns="http://www.w3.org/2000/svg" width="287" height="176" viewBox="0 0 287 176">
<g>
<path d="M 192.00 0.00 L 287.00 0.00 L 287.00 68.84 L 283.75 70.82 C273.76,76.92 268.43,79.76 267.76,79.35 C267.34,79.09 267.00,76.70 267.00,74.04 C267.00,69.36 266.84,69.10 262.57,66.60 C257.08,63.38 256.36,63.38 250.58,66.61 L 245.91 69.22 L 246.50 81.25 L 260.50 89.26 C268.20,93.66 274.71,97.45 274.96,97.68 C276.19,98.77 272.75,101.54 264.99,105.72 L 256.48 110.31 L 241.24 101.57 L 226.00 92.84 L 226.00 57.33 L 240.25 49.21 C248.09,44.74 255.18,40.83 256.00,40.53 C256.85,40.22 263.83,43.67 272.00,48.43 L 286.50 56.89 L 286.77 28.79 C286.91,13.34 286.87,0.54 286.67,0.34 C286.47,0.14 265.66,0.10 240.41,0.24 L 194.50 0.50 L 212.00 10.10 L 212.00 51.43 C212.00,83.86 211.72,92.98 210.72,93.82 C208.16,95.94 181.77,110.98 181.14,110.67 C180.79,110.50 173.86,106.58 165.75,101.96 L 151.00 93.57 L 151.02 75.53 L 151.04 57.50 L 165.41 49.25 C173.32,44.71 180.62,41.00 181.64,41.00 C182.66,41.01 184.99,41.92 186.81,43.03 C188.63,44.14 190.54,44.78 191.06,44.46 C191.60,44.13 192.00,34.55 192.00,21.94 L 192.00 0.00 ZM 0.00 0.00 L 0.02 29.25 C0.02,45.34 0.36,58.00 0.77,57.40 C1.77,55.90 29.59,40.00 31.21,40.01 C31.92,40.01 39.03,43.74 47.00,48.29 L 61.50 56.56 L 61.77 78.96 C61.93,92.01 61.65,101.75 61.10,102.30 C59.95,103.45 42.48,93.68 41.60,91.40 C41.27,90.54 41.00,85.01 41.00,79.10 L 41.00 68.37 L 37.11 66.18 C32.12,63.38 29.86,63.43 25.01,66.49 L 21.06 68.98 L 20.78 80.74 L 20.50 92.50 L 12.00 97.69 C7.32,100.55 2.71,102.91 1.75,102.94 C0.12,103.00 0.00,105.43 0.00,139.50 ZM 175.75 84.22 C178.36,85.72 180.97,86.96 181.55,86.97 C182.13,86.99 184.74,85.65 187.35,83.99 L 192.10 80.98 L 191.80 75.32 C191.50,69.72 191.45,69.63 186.60,66.65 L 181.70 63.64 L 176.35 66.54 L 171.00 69.43 L 171.00 75.46 L 171.01 81.50 Z" fill="rgb(50,50,50)"/>
<path d="M 101.52 101.25 C104.00,106.06 105.89,110.00 105.74,110.00 C105.21,110.00 77.51,93.87 76.73,93.11 C76.30,92.69 76.08,84.29 76.23,74.43 L 76.50 56.50 L 79.12 61.00 C80.55,63.47 82.27,67.18 82.94,69.24 C83.61,71.30 84.70,73.33 85.38,73.74 C87.31,74.93 92.87,84.41 101.52,101.25 ZM 128.33 97.84 C121.11,102.03 118.58,103.02 120.80,100.80 C121.62,99.98 122.00,95.21 122.00,85.87 L 122.00 72.13 L 124.73 71.82 C126.91,71.56 128.23,70.18 131.23,65.00 C133.31,61.42 135.45,58.35 136.00,58.17 C137.17,57.78 137.39,90.88 136.23,92.59 C135.83,93.18 132.27,95.54 128.33,97.84 Z" fill="rgb(71,142,67)"/>
<path d="M 101.52 101.25 C92.87,84.41 87.31,74.93 85.38,73.74 C84.70,73.33 83.61,71.30 82.94,69.24 C82.27,67.18 80.55,63.47 79.12,61.00 L 76.67 56.80 L 91.00 48.50 L 106.04 39.79 L 119.77 47.54 C127.32,51.81 134.29,55.97 135.25,56.80 C136.75,58.10 136.99,60.23 136.99,73.95 C136.92,65.74 136.57,57.98 136.00,58.17 C135.45,58.35 133.31,61.42 131.23,65.00 C128.23,70.18 126.91,71.56 124.73,71.82 L 122.00 72.13 L 122.00 85.87 C122.00,95.21 121.62,99.98 120.80,100.80 C119.04,102.56 120.26,102.30 124.43,100.04 C123.41,100.63 122.36,101.24 121.29,101.85 C113.48,106.33 106.50,109.96 105.79,109.91 C105.77,109.91 105.75,109.90 105.73,109.90 C105.53,109.25 103.76,105.61 101.52,101.25 ZM 215.25 176.00 L 287.00 176.00 L 0.00 176.00 L 140.50 175.96 L 135.56 172.86 C130.97,169.98 130.75,169.66 132.46,168.40 C134.06,167.23 134.85,167.35 138.24,169.25 L 142.15 171.46 L 146.33 169.10 C148.62,167.80 154.67,164.30 159.78,161.32 L 169.05 155.90 L 168.78 140.34 L 168.50 124.78 L 159.50 119.59 C154.55,116.73 148.62,113.34 146.32,112.05 L 142.14 109.71 L 115.00 125.25 L 115.00 155.81 L 119.54 158.47 C122.03,159.93 125.07,160.99 126.29,160.81 C128.45,160.51 128.51,160.16 128.77,144.25 L 129.05 128.00 L 134.13 128.00 L 133.82 145.09 C133.51,161.66 133.43,162.24 131.14,164.09 C127.97,166.65 125.24,166.50 119.40,163.41 C116.03,161.63 114.01,160.69 112.80,159.12 C110.99,156.78 110.99,153.03 111.00,142.94 C111.00,142.16 111.00,141.35 111.00,140.50 C111.00,125.39 111.21,123.12 112.75,121.76 C115.00,119.77 141.12,105.00 142.39,105.00 C143.76,105.00 171.35,121.09 172.23,122.41 C173.19,123.83 173.19,157.15 172.23,158.65 C171.83,159.28 165.20,163.45 157.50,167.90 L 143.50 175.99 ZM 160.08 152.08 C157.45,154.70 156.51,155.00 150.83,154.96 C142.80,154.91 138.59,153.13 137.22,149.19 C136.64,147.53 136.43,145.91 136.75,145.59 C138.07,144.26 140.91,145.14 141.52,147.06 C143.36,152.85 158.92,152.03 157.80,146.19 C157.48,144.55 154.71,143.63 146.62,142.51 C141.28,141.78 137.00,138.48 137.00,135.10 C137.00,134.01 138.09,131.85 139.41,130.31 C141.66,127.69 142.34,127.50 149.39,127.50 C157.49,127.50 159.98,128.79 161.46,133.75 C162.58,137.49 159.45,137.69 156.10,134.11 C153.19,130.99 150.21,130.30 145.32,131.61 C142.91,132.26 141.46,134.86 142.78,136.18 C143.24,136.64 147.20,137.70 151.56,138.52 C160.13,140.13 163.00,142.18 163.00,146.69 C163.00,148.08 161.73,150.43 160.08,152.08 ZM 260.38 79.71 C256.12,82.83 251.00,80.15 251.00,74.81 C251.00,70.44 254.50,68.09 258.78,69.58 C261.03,70.37 261.56,71.22 261.82,74.48 C262.06,77.35 261.67,78.77 260.38,79.71 ZM 76.49 56.90 L 76.23 74.43 C76.22,74.54 76.22,74.65 76.22,74.76 L 75.96 57.21 ZM 76.48 91.76 C76.55,92.55 76.63,93.01 76.73,93.11 C77.41,93.77 98.86,106.29 104.43,109.34 C101.94,108.11 96.46,105.04 90.50,101.50 L 76.50 93.19 ZM 136.06 92.78 C136.14,92.70 136.20,92.64 136.23,92.59 C136.25,92.56 136.27,92.53 136.28,92.49 C136.27,92.54 136.25,92.58 136.23,92.60 C136.21,92.64 136.15,92.70 136.06,92.78 Z" fill="rgb(106,165,93)"/>
<path d="M 182.67 125.47 C180.48,127.66 180.00,127.39 180.00,124.00 C180.00,120.73 181.07,120.18 182.98,122.47 C183.95,123.65 183.89,124.25 182.67,125.47 Z" fill="rgb(183,195,182)"/>
<path d="M 0.00 139.50 C0.00,105.43 0.12,103.00 1.75,102.94 C2.71,102.91 7.32,100.55 12.00,97.69 L 20.50 92.50 L 20.78 80.74 L 21.06 68.98 L 25.01 66.49 C29.86,63.43 32.12,63.38 37.11,66.18 L 41.00 68.37 L 41.00 79.10 C41.00,85.01 41.27,90.54 41.60,91.40 C42.48,93.68 59.95,103.45 61.10,102.30 C61.65,101.75 61.93,92.01 61.77,78.96 L 61.50 56.56 L 47.00 48.29 C39.03,43.74 31.92,40.01 31.21,40.01 C29.59,40.00 1.77,55.90 0.77,57.40 C0.36,58.00 0.02,45.34 0.02,29.25 L 0.00 0.00 L 96.00 0.00 L 192.00 0.00 L 192.00 21.94 C192.00,34.55 191.60,44.13 191.06,44.46 C190.54,44.78 188.63,44.14 186.81,43.03 C184.99,41.92 182.66,41.01 181.64,41.00 C180.62,41.00 173.32,44.71 165.41,49.25 L 151.04 57.50 L 151.02 75.53 L 151.00 93.57 L 165.75 101.96 C173.86,106.58 180.79,110.50 181.14,110.67 C181.77,110.98 208.16,95.94 210.72,93.82 C211.72,92.98 212.00,83.86 212.00,51.43 L 212.00 10.10 L 203.25 5.30 L 194.50 0.50 L 240.41 0.24 C265.66,0.10 286.47,0.14 286.67,0.34 C286.87,0.54 286.91,13.34 286.77,28.79 L 286.50 56.89 L 272.00 48.43 C263.83,43.67 256.85,40.22 256.00,40.53 C255.18,40.83 248.09,44.74 240.25,49.21 L 226.00 57.33 L 226.00 75.08 L 226.00 92.84 L 241.24 101.57 L 256.48 110.31 L 264.99 105.72 C272.75,101.54 276.19,98.77 274.96,97.68 C274.71,97.45 268.20,93.66 260.50,89.26 L 246.50 81.25 L 246.21 75.23 L 245.91 69.22 L 250.58 66.61 C256.36,63.38 257.08,63.38 262.57,66.60 C266.84,69.10 267.00,69.36 267.00,74.04 C267.00,76.70 267.34,79.09 267.76,79.35 C268.43,79.76 273.76,76.92 283.75,70.82 L 287.00 68.84 L 287.00 122.42 L 287.00 176.00 L 215.25 176.00 L 143.50 175.99 L 157.50 167.90 C165.20,163.45 171.83,159.28 172.23,158.65 C173.19,157.15 173.19,123.83 172.23,122.41 C171.35,121.09 143.76,105.00 142.39,105.00 C141.12,105.00 115.00,119.77 112.75,121.76 C111.21,123.12 111.00,125.39 111.00,140.50 C111.00,159.86 110.60,158.75 119.40,163.41 C125.24,166.50 127.97,166.65 131.14,164.09 C133.43,162.24 133.51,161.66 133.82,145.09 L 134.13 128.00 L 131.59 128.00 L 129.05 128.00 L 128.77 144.25 C128.51,160.16 128.45,160.51 126.29,160.81 C125.07,160.99 122.03,159.93 119.54,158.47 L 115.00 155.81 L 115.00 140.53 L 115.00 125.25 L 128.57 117.48 L 142.14 109.71 L 146.32 112.05 C148.62,113.34 154.55,116.73 159.50,119.59 L 168.50 124.78 L 168.78 140.34 L 169.05 155.90 L 159.78 161.32 C154.67,164.30 148.62,167.80 146.33,169.10 L 142.15 171.46 L 138.24 169.25 C134.85,167.35 134.06,167.23 132.46,168.40 C130.75,169.66 130.97,169.98 135.56,172.86 L 140.50 175.96 L 70.25 175.98 L 0.00 176.00 L 0.00 139.50 ZM 160.08 152.08 C161.73,150.43 163.00,148.08 163.00,146.69 C163.00,142.18 160.13,140.13 151.56,138.52 C147.20,137.70 143.24,136.64 142.78,136.18 C141.46,134.86 142.91,132.26 145.32,131.61 C150.21,130.30 153.19,130.99 156.10,134.11 C159.45,137.69 162.58,137.49 161.46,133.75 C159.98,128.79 157.49,127.50 149.39,127.50 C142.34,127.50 141.66,127.69 139.41,130.31 C138.09,131.85 137.00,134.01 137.00,135.10 C137.00,138.48 141.28,141.78 146.62,142.51 C154.71,143.63 157.48,144.55 157.80,146.19 C158.92,152.03 143.36,152.85 141.52,147.06 C140.91,145.14 138.07,144.26 136.75,145.59 C136.43,145.91 136.64,147.53 137.22,149.19 C138.59,153.13 142.80,154.91 150.83,154.96 C156.51,155.00 157.45,154.70 160.08,152.08 ZM 182.67 125.47 C183.89,124.25 183.95,123.65 182.98,122.47 C181.07,120.18 180.00,120.73 180.00,124.00 C180.00,127.39 180.48,127.66 182.67,125.47 ZM 121.29 101.85 C129.11,97.37 135.83,93.21 136.23,92.60 C136.64,92.00 136.98,84.03 136.98,74.90 C137.00,60.33 136.79,58.13 135.25,56.80 C134.29,55.97 127.32,51.81 119.77,47.54 L 106.04 39.79 L 91.00 48.50 L 75.96 57.21 L 76.23 75.20 L 76.50 93.19 L 90.50 101.50 C98.20,106.07 105.08,109.86 105.79,109.91 C106.50,109.96 113.48,106.33 121.29,101.85 ZM 260.38 79.71 C261.67,78.77 262.06,77.35 261.82,74.48 C261.56,71.22 261.03,70.37 258.78,69.58 C254.50,68.09 251.00,70.44 251.00,74.81 C251.00,80.15 256.12,82.83 260.38,79.71 ZM 175.75 84.22 L 171.01 81.50 L 171.00 75.46 L 171.00 69.43 L 176.35 66.54 L 181.70 63.64 L 186.60 66.65 C191.45,69.63 191.50,69.72 191.80,75.32 L 192.10 80.98 L 187.35 83.99 C184.74,85.65 182.13,86.99 181.55,86.97 C180.97,86.96 178.36,85.72 175.75,84.22 Z" fill="rgb(254,254,254)"/>
</g>
</svg>