<svg xmlns="http://www.w3.org/2000/svg" width="225" height="225" viewBox="0 0 225 225">
<g>
<path d="M 0.00 0.00 L 168.73 0.00 L 169.23 9.68 C169.72,19.01 169.64,19.53 166.81,24.32 C164.23,28.69 164.02,29.63 165.04,32.10 C166.03,34.50 165.90,35.33 164.10,37.86 C162.95,39.48 162.00,41.20 162.00,41.68 C162.00,42.16 160.75,43.67 159.23,45.03 C156.01,47.89 149.00,61.27 149.00,64.53 C149.00,67.47 146.96,69.04 143.88,68.48 C142.18,68.18 139.65,69.15 135.94,71.55 C132.95,73.49 129.55,75.31 128.38,75.61 C127.22,75.91 124.60,78.10 122.57,80.48 C120.28,83.17 116.93,85.63 113.69,86.98 C110.84,88.18 107.26,89.69 105.75,90.33 C104.24,90.96 103.00,91.83 103.00,92.24 C103.00,92.66 102.08,93.00 100.95,93.00 C99.82,93.00 97.58,93.68 95.96,94.52 C94.21,95.43 91.99,95.78 90.47,95.40 C88.74,94.97 87.30,95.32 85.98,96.51 C84.44,97.91 83.05,98.13 79.09,97.61 C75.05,97.07 73.96,97.26 73.20,98.61 C72.65,99.59 71.76,99.97 71.05,99.53 C70.19,99.00 70.03,97.09 70.50,93.02 C71.16,87.33 71.12,87.21 67.24,83.13 L 63.31 79.00 L 55.49 79.00 C48.83,79.00 47.00,79.39 43.09,81.68 C36.58,85.47 28.00,93.08 28.00,95.06 C28.00,95.98 27.01,97.99 25.80,99.53 C24.34,101.39 23.55,103.86 23.46,106.91 C23.26,113.57 23.15,114.00 21.57,114.00 C20.78,114.00 19.85,114.89 19.51,115.97 C18.93,117.81 18.25,117.90 9.44,117.32 L 0.00 116.70 ZM 50.38 112.54 C48.24,115.80 47.21,115.57 42.65,110.81 C39.58,107.62 38.90,106.25 39.33,104.15 C40.35,99.15 44.08,92.03 46.29,90.88 C47.51,90.25 49.31,88.89 50.29,87.86 C52.38,85.69 56.27,85.42 57.87,87.35 C58.49,88.09 59.27,90.10 59.62,91.83 C60.09,94.20 59.85,95.12 58.62,95.59 C55.03,96.97 58.32,104.00 62.56,104.00 C65.00,104.00 65.64,105.44 64.21,107.70 C63.63,108.61 62.36,108.64 58.97,107.81 C56.51,107.21 54.14,106.40 53.70,106.01 C52.12,104.60 48.00,106.17 48.00,108.18 C48.00,109.68 48.47,109.99 50.00,109.50 C52.42,108.73 52.50,109.31 50.38,112.54 Z" fill="rgb(5,189,205)"/>
<path d="M 0.00 116.70 L 9.44 117.32 C18.25,117.90 18.93,117.81 19.51,115.97 C19.85,114.89 20.78,114.00 21.57,114.00 C23.15,114.00 23.26,113.57 23.46,106.91 C23.55,103.86 24.34,101.39 25.80,99.53 C27.01,97.99 28.00,95.98 28.00,95.06 C28.00,93.08 36.58,85.47 43.09,81.68 C47.00,79.39 48.83,79.00 55.49,79.00 L 63.31 79.00 L 67.24 83.13 C71.12,87.21 71.16,87.33 70.50,93.02 C70.03,97.09 70.19,99.00 71.05,99.53 C71.76,99.97 72.65,99.59 73.20,98.61 C73.96,97.26 75.05,97.07 79.09,97.61 C83.05,98.13 84.44,97.91 85.98,96.51 C87.30,95.32 88.74,94.97 90.47,95.40 C91.99,95.78 94.21,95.43 95.96,94.52 C97.58,93.68 99.82,93.00 100.95,93.00 C102.08,93.00 103.00,92.66 103.00,92.24 C103.00,91.83 104.24,90.96 105.75,90.33 C107.26,89.69 110.84,88.18 113.69,86.98 C116.93,85.63 120.28,83.17 122.57,80.48 C124.60,78.10 127.22,75.91 128.38,75.61 C129.55,75.31 132.95,73.49 135.94,71.55 C139.65,69.15 142.18,68.18 143.88,68.48 C146.96,69.04 149.00,67.47 149.00,64.53 C149.00,61.27 156.01,47.89 159.23,45.03 C160.75,43.67 162.00,42.16 162.00,41.68 C162.00,41.20 162.95,39.48 164.10,37.86 C165.90,35.33 166.03,34.50 165.04,32.10 C164.02,29.63 164.23,28.69 166.81,24.32 C169.64,19.53 169.72,19.01 169.23,9.68 L 168.73 0.00 L 210.09 0.00 L 210.06 7.75 C210.05,12.01 209.43,17.08 208.70,19.00 C206.51,24.73 204.73,28.00 203.80,28.00 C203.32,28.00 203.15,29.85 203.42,32.12 C203.86,35.76 203.35,37.13 198.99,43.92 C196.28,48.14 193.40,53.15 192.59,55.05 C191.01,58.76 185.38,66.41 177.75,75.23 C175.14,78.25 173.00,81.16 173.00,81.70 C173.00,82.24 171.87,83.19 170.49,83.82 C169.10,84.45 167.46,86.09 166.83,87.47 C166.03,89.23 164.64,90.14 162.10,90.56 C156.52,91.47 153.92,93.14 153.30,96.23 C152.58,99.83 151.21,100.66 149.61,98.48 C148.66,97.18 147.75,96.96 145.92,97.61 C143.50,98.46 142.57,98.67 140.26,98.88 C139.58,98.95 138.37,100.57 137.56,102.50 C136.24,105.67 133.00,107.44 133.00,105.00 C133.00,104.45 132.10,103.10 131.00,102.00 C128.16,99.16 122.88,99.39 119.18,102.50 C115.47,105.62 114.64,105.62 112.59,102.50 C110.83,99.81 106.91,99.13 105.29,101.25 C104.77,101.94 103.74,105.09 103.01,108.25 C101.49,114.82 98.68,120.00 96.62,120.00 C94.40,120.00 94.01,117.57 95.18,110.79 C96.84,101.11 96.79,100.54 94.17,100.17 C92.88,99.99 91.08,100.52 90.17,101.34 C88.72,102.65 88.25,102.66 86.56,101.42 C85.49,100.64 82.97,100.00 80.96,100.00 C75.89,100.00 71.28,104.73 66.18,115.18 C59.28,129.30 50.23,134.38 42.01,128.75 C35.12,124.03 33.40,112.82 37.69,100.64 C41.22,90.61 53.56,81.35 58.91,84.71 C61.58,86.39 62.57,90.67 61.12,94.29 C58.63,100.48 58.62,101.00 60.93,101.00 C63.96,101.00 67.75,96.88 68.52,92.73 C69.37,88.22 67.02,83.58 62.80,81.39 C58.21,79.02 48.43,79.97 42.68,83.34 C27.52,92.22 21.93,112.41 29.67,130.25 C30.57,132.31 31.60,134.00 31.96,134.00 C32.32,134.00 33.44,134.60 34.44,135.33 C36.01,136.48 36.08,136.99 34.98,139.08 C33.39,142.08 32.11,142.97 29.32,142.98 C28.12,142.99 26.55,143.56 25.82,144.25 C25.09,144.94 23.16,145.66 21.52,145.85 C19.89,146.04 17.65,146.83 16.55,147.60 C15.29,148.49 11.89,149.00 7.28,149.00 L 0.00 149.00 ZM 50.38 112.54 C52.50,109.31 52.42,108.73 50.00,109.50 C48.47,109.99 48.00,109.68 48.00,108.18 C48.00,106.17 52.12,104.60 53.70,106.01 C54.14,106.40 56.51,107.21 58.97,107.81 C62.36,108.64 63.63,108.61 64.21,107.70 C65.64,105.44 65.00,104.00 62.56,104.00 C58.32,104.00 55.03,96.97 58.62,95.59 C59.85,95.12 60.09,94.20 59.62,91.83 C59.27,90.10 58.49,88.09 57.87,87.35 C56.27,85.42 52.38,85.69 50.29,87.86 C49.31,88.89 47.51,90.25 46.29,90.88 C44.08,92.03 40.35,99.15 39.33,104.15 C38.90,106.25 39.58,107.62 42.65,110.81 C47.21,115.57 48.24,115.80 50.38,112.54 ZM 82.09 121.00 C81.65,121.82 79.88,122.64 78.15,122.81 C75.29,123.10 75.00,122.87 75.01,120.31 C75.02,112.94 80.71,103.91 84.44,105.34 C87.31,106.44 86.34,112.90 82.09,121.00 ZM 66.44 134.09 C65.66,135.35 63.63,135.23 62.22,133.82 C60.88,132.48 62.36,130.00 64.52,130.00 C65.98,130.00 67.28,132.75 66.44,134.09 ZM 56.86 137.11 C55.04,138.26 52.00,138.23 52.00,137.07 C52.00,135.80 55.71,134.70 57.10,135.56 C57.88,136.05 57.81,136.50 56.86,137.11 ZM 44.00 141.00 C44.00,141.55 43.30,142.00 42.44,142.00 C41.58,142.00 41.16,141.55 41.50,141.00 C41.84,140.45 42.54,140.00 43.06,140.00 C43.58,140.00 44.00,140.45 44.00,141.00 Z" fill="rgb(24,166,207)"/>
<path d="M 225.00 0.00 L 225.00 139.50 C225.00,66.11 224.80,54.00 223.57,54.00 C221.54,54.00 216.00,61.04 216.00,63.63 C216.00,64.82 214.43,68.14 212.50,71.00 C210.57,73.86 209.00,76.53 209.00,76.94 C209.00,77.35 207.31,79.25 205.25,81.17 C203.19,83.10 199.25,87.11 196.50,90.09 C189.43,97.75 186.24,100.00 182.45,100.00 C179.90,100.00 177.93,101.13 173.69,105.00 C167.54,110.62 163.37,111.80 165.02,107.43 C166.38,103.87 166.25,96.65 164.80,95.20 C162.92,93.32 158.85,93.79 156.31,96.17 C152.98,99.31 153.11,105.79 156.59,109.93 L 159.19 113.01 L 156.69 117.25 C155.31,119.59 153.08,122.54 151.72,123.80 C149.42,125.95 149.21,125.99 148.52,124.30 C148.12,123.31 147.55,117.44 147.25,111.25 L 146.72 100.00 L 143.84 100.00 C140.47,100.00 139.56,101.63 138.04,110.40 C136.92,116.82 133.06,124.38 130.36,125.42 C127.08,126.67 126.55,124.38 128.33,116.76 C131.15,104.69 130.46,100.30 125.55,100.01 C127.64,99.96 129.61,100.61 131.00,102.00 C132.10,103.10 133.00,104.45 133.00,105.00 C133.00,107.44 136.24,105.67 137.56,102.50 C138.37,100.57 139.58,98.95 140.26,98.88 C142.57,98.67 143.50,98.46 145.92,97.61 C147.75,96.96 148.66,97.18 149.61,98.48 C151.21,100.66 152.58,99.83 153.30,96.23 C153.92,93.14 156.52,91.47 162.10,90.56 C164.64,90.14 166.03,89.23 166.83,87.47 C167.46,86.09 169.10,84.45 170.49,83.82 C171.87,83.19 173.00,82.24 173.00,81.70 C173.00,81.16 175.14,78.25 177.75,75.23 C185.38,66.41 191.01,58.76 192.59,55.05 C193.40,53.15 196.28,48.14 198.99,43.92 C203.35,37.13 203.86,35.76 203.42,32.12 C203.15,29.85 203.32,28.00 203.80,28.00 C204.73,28.00 206.51,24.73 208.70,19.00 C209.43,17.08 210.05,12.01 210.06,7.75 L 210.09 0.00 ZM 0.00 171.00 L 0.00 149.00 L 7.28 149.00 C11.89,149.00 15.29,148.49 16.55,147.60 C17.65,146.83 19.89,146.04 21.52,145.85 C23.16,145.66 25.09,144.94 25.82,144.25 C26.55,143.56 28.12,142.99 29.32,142.98 C32.11,142.97 33.39,142.08 34.98,139.08 C36.08,136.99 36.01,136.48 34.44,135.33 C33.44,134.60 32.32,134.00 31.96,134.00 C31.60,134.00 30.57,132.31 29.67,130.25 C28.72,128.06 27.97,125.82 27.41,123.58 C27.74,124.63 28.17,125.60 28.73,126.67 C32.72,134.14 40.22,137.71 49.31,136.46 C53.79,135.84 55.11,135.05 60.28,129.88 C63.51,126.65 66.35,124.00 66.58,124.00 C66.81,124.00 67.00,124.82 67.00,125.81 C67.00,128.97 70.74,132.00 74.64,132.00 C77.31,132.00 78.90,131.25 81.04,128.96 L 83.88 125.91 L 85.09 128.21 C85.76,129.47 86.79,130.83 87.40,131.23 C89.65,132.74 93.94,131.92 96.92,129.42 L 99.99 126.83 L 100.99 129.48 C101.79,131.58 102.56,132.07 104.65,131.82 C106.86,131.55 107.58,130.66 108.94,126.50 C112.10,116.85 118.21,107.00 121.04,107.00 C122.28,107.00 122.27,107.07 120.48,116.42 C118.91,124.62 119.16,127.28 121.77,130.25 C125.14,134.09 131.73,131.15 135.83,123.98 C138.62,119.09 140.00,118.50 140.00,122.21 C140.00,123.24 140.96,125.97 142.12,128.29 C143.29,130.61 143.91,132.18 143.49,131.78 C143.07,131.39 141.61,131.95 140.23,133.03 C137.42,135.24 133.90,135.55 130.75,133.87 C128.99,132.93 128.35,133.08 126.97,134.79 C125.03,137.18 120.17,139.38 114.50,140.42 C108.64,141.50 101.00,144.11 101.00,145.04 C101.00,145.48 99.54,146.13 97.75,146.49 C95.96,146.85 91.91,148.01 88.75,149.07 C85.58,150.13 81.70,151.00 80.12,151.00 C78.55,151.00 72.14,152.62 65.88,154.60 C59.62,156.58 51.80,159.02 48.50,160.03 C45.20,161.04 40.13,162.76 37.23,163.85 C34.33,164.95 30.51,166.10 28.73,166.40 C26.95,166.71 21.23,167.86 16.00,168.95 C10.77,170.05 5.04,170.95 3.25,170.97 ZM 109.15 100.12 C108.89,100.13 108.61,100.15 108.30,100.18 C105.83,100.47 105.51,101.04 104.41,107.04 C102.39,117.98 97.66,127.00 93.93,127.00 C90.83,127.00 91.27,121.87 95.61,107.29 C95.74,106.86 95.86,106.43 95.96,106.01 C95.78,107.29 95.51,108.86 95.18,110.79 C94.01,117.57 94.40,120.00 96.62,120.00 C98.68,120.00 101.49,114.82 103.01,108.25 C103.74,105.09 104.77,101.94 105.29,101.25 C106.15,100.13 107.66,99.79 109.15,100.12 ZM 160.37 121.70 C159.98,121.31 158.80,121.78 157.74,122.74 C156.68,123.70 157.47,122.01 159.50,118.99 C162.13,115.07 164.02,113.32 166.09,112.88 C169.14,112.22 169.45,112.73 168.40,116.64 C167.78,118.94 161.54,122.88 160.37,121.70 ZM 188.00 110.19 C188.00,111.74 187.89,112.96 187.75,112.92 C187.61,112.87 186.17,112.25 184.54,111.53 C182.91,110.81 181.11,110.33 180.54,110.45 C179.97,110.57 179.84,110.48 180.26,110.25 C180.67,110.02 180.76,109.42 180.45,108.91 C180.14,108.41 180.39,108.00 181.00,108.00 C181.61,108.00 181.85,107.57 181.53,107.05 C181.21,106.53 181.93,105.57 183.14,104.92 C184.98,103.94 185.56,104.05 186.67,105.56 C187.40,106.56 188.00,108.65 188.00,110.19 ZM 82.09 121.00 C83.97,117.41 85.21,114.15 85.75,111.53 C85.40,114.78 84.32,118.71 82.69,121.83 C80.41,126.19 77.45,128.12 75.71,126.38 C75.20,125.87 74.98,123.82 75.04,121.38 C75.16,122.93 75.75,123.05 78.15,122.81 C79.88,122.64 81.65,121.82 82.09,121.00 ZM 161.93 101.17 C161.89,103.00 161.49,105.40 161.04,106.50 C160.29,108.36 160.18,108.31 159.53,105.85 C158.61,102.36 159.19,98.76 160.75,98.24 C161.59,97.97 161.98,98.92 161.93,101.17 ZM 66.44 134.09 C67.28,132.75 65.98,130.00 64.52,130.00 C62.36,130.00 60.88,132.48 62.22,133.82 C63.63,135.23 65.66,135.35 66.44,134.09 ZM 118.49 103.07 C117.32,104.18 116.10,105.59 114.80,107.36 L 111.73 111.50 L 112.34 108.25 C112.68,106.46 112.51,103.84 111.97,102.43 C111.78,101.92 111.58,101.50 111.36,101.17 C111.83,101.53 112.25,101.98 112.59,102.50 C114.50,105.42 115.36,105.61 118.49,103.07 ZM 56.86 137.11 C57.81,136.50 57.88,136.05 57.10,135.56 C55.71,134.70 52.00,135.80 52.00,137.07 C52.00,138.23 55.04,138.26 56.86,137.11 ZM 191.27 102.25 C190.40,103.21 189.58,104.00 189.45,104.00 C189.25,104.00 188.00,101.14 188.00,100.67 C188.00,100.58 189.09,100.50 190.43,100.50 C192.68,100.50 192.74,100.63 191.27,102.25 ZM 44.00 141.00 C44.00,140.45 43.58,140.00 43.06,140.00 C42.54,140.00 41.84,140.45 41.50,141.00 C41.16,141.55 41.58,142.00 42.44,142.00 C43.30,142.00 44.00,141.55 44.00,141.00 ZM 26.84 120.89 C26.04,116.45 26.00,112.01 26.66,107.76 C26.54,109.32 26.51,111.15 26.51,113.50 C26.51,116.77 26.59,119.06 26.84,120.89 ZM 75.47 116.45 C75.61,115.55 75.79,114.70 76.00,113.94 C76.48,112.23 77.50,110.45 78.71,108.95 C77.30,111.01 76.10,113.70 75.47,116.45 ZM 40.76 84.56 C41.38,84.13 42.02,83.73 42.68,83.34 C48.43,79.97 58.21,79.02 62.80,81.39 C62.85,81.42 62.91,81.45 62.96,81.48 C60.56,80.31 57.43,79.93 53.35,80.26 C48.69,80.63 44.48,82.08 40.76,84.56 ZM 68.23 87.84 C68.71,89.41 68.83,91.08 68.52,92.73 C68.32,93.81 67.92,94.88 67.38,95.88 C68.52,93.42 68.93,90.44 68.23,87.84 ZM 29.69 97.75 C31.38,94.14 33.66,90.86 36.49,88.08 C33.89,90.68 31.62,93.91 29.69,97.75 ZM 90.02 101.47 C90.02,101.47 90.02,101.48 90.02,101.48 C89.17,102.50 88.75,102.73 87.72,102.16 C88.54,102.54 89.07,102.31 90.02,101.47 ZM 66.18 115.17 C69.27,108.85 72.17,104.63 75.11,102.28 C72.17,104.63 69.26,108.86 66.18,115.17 ZM 75.11 102.28 C77.02,100.74 78.94,100.00 80.93,100.00 L 80.95 100.00 C78.95,100.00 77.02,100.74 75.11,102.28 ZM 84.92 105.59 C84.79,105.51 84.66,105.43 84.52,105.37 C84.54,105.38 84.56,105.38 84.58,105.39 C84.70,105.44 84.81,105.51 84.92,105.59 Z" fill="rgb(46,137,213)"/>
<path d="M 0.00 171.00 L 3.25 170.97 C5.04,170.95 10.77,170.05 16.00,168.95 C21.23,167.86 26.95,166.71 28.73,166.40 C30.51,166.10 34.33,164.95 37.23,163.85 C40.13,162.76 45.20,161.04 48.50,160.03 C51.80,159.02 59.62,156.58 65.88,154.60 C72.14,152.62 78.55,151.00 80.12,151.00 C81.70,151.00 85.58,150.13 88.75,149.07 C91.91,148.01 95.96,146.85 97.75,146.49 C99.54,146.13 101.00,145.48 101.00,145.04 C101.00,144.11 108.64,141.50 114.50,140.42 C120.17,139.38 125.03,137.18 126.97,134.79 C128.35,133.08 128.99,132.93 130.75,133.87 C133.90,135.55 137.42,135.24 140.23,133.03 C141.61,131.95 143.07,131.39 143.49,131.78 C143.91,132.18 143.29,130.61 142.12,128.29 C141.76,127.58 141.43,126.83 141.13,126.10 C141.40,126.75 141.70,127.41 142.02,128.04 C145.55,134.96 149.99,132.89 158.55,120.35 C158.85,119.92 159.13,119.51 159.41,119.12 C157.45,122.06 156.69,123.68 157.74,122.74 C158.80,121.78 159.98,121.31 160.37,121.70 C161.54,122.88 167.78,118.94 168.40,116.64 C168.45,116.45 168.50,116.26 168.54,116.09 L 168.32 118.44 C167.89,123.09 168.15,125.39 169.39,127.79 C172.00,132.84 178.65,133.35 183.17,128.83 L 185.28 126.72 L 186.89 128.82 C187.78,129.97 189.62,131.35 191.00,131.89 C193.27,132.78 193.11,132.88 189.32,132.94 C186.23,132.98 184.99,133.46 184.57,134.78 C183.66,137.64 177.20,143.73 174.30,144.46 C172.83,144.83 170.32,146.06 168.72,147.20 C165.03,149.83 150.73,155.04 145.50,155.67 C143.30,155.93 140.15,156.75 138.50,157.50 C134.69,159.21 111.84,165.44 102.00,167.45 C97.88,168.29 93.60,169.20 92.50,169.48 C91.40,169.75 88.03,170.49 85.00,171.13 C81.97,171.76 76.32,173.34 72.42,174.64 C68.53,175.94 64.26,176.99 62.92,176.97 C60.32,176.94 46.91,181.06 30.00,187.09 C24.23,189.15 16.81,191.14 13.52,191.52 C10.23,191.89 5.84,192.88 3.77,193.71 L 0.00 195.22 L 0.00 171.00 ZM 225.00 139.50 L 225.00 161.09 C225.00,97.57 224.99,97.19 222.99,97.71 C220.96,98.24 215.00,104.98 215.00,106.74 C215.00,108.34 211.17,112.22 210.19,111.62 C208.99,110.87 206.66,113.66 205.02,117.82 C204.19,119.90 203.43,120.70 202.98,119.96 C202.51,119.21 201.41,120.28 199.94,122.89 C198.56,125.35 196.90,127.00 195.82,127.00 C193.24,127.00 193.43,121.66 196.41,110.51 C197.73,105.56 198.61,101.17 198.35,100.76 C197.44,99.28 193.28,100.03 191.50,102.00 L 191.29 102.23 C192.74,100.63 192.67,100.50 190.43,100.50 C189.09,100.50 188.00,100.58 188.00,100.67 C188.00,100.91 188.32,101.75 188.66,102.53 L 188.29 102.00 C187.30,100.59 185.75,100.00 183.02,100.00 C181.94,100.00 181.05,100.09 180.18,100.37 C180.93,100.11 181.66,100.00 182.45,100.00 C186.24,100.00 189.43,97.75 196.50,90.09 C199.25,87.11 203.19,83.10 205.25,81.17 C207.31,79.25 209.00,77.35 209.00,76.94 C209.00,76.53 210.57,73.86 212.50,71.00 C214.43,68.14 216.00,64.82 216.00,63.63 C216.00,61.04 221.54,54.00 223.57,54.00 C224.80,54.00 225.00,66.11 225.00,139.50 ZM 181.71 126.20 C177.73,128.73 175.92,125.15 177.34,117.50 C178.10,113.40 179.29,109.96 180.32,108.61 C180.34,108.71 180.38,108.81 180.45,108.91 C180.76,109.42 180.67,110.02 180.26,110.25 C179.84,110.48 179.97,110.57 180.54,110.45 C181.11,110.33 182.91,110.81 184.54,111.53 C185.76,112.07 186.89,112.56 187.42,112.79 C187.03,115.20 186.23,117.96 184.97,120.81 C183.84,123.35 182.38,125.78 181.71,126.20 ZM 168.82 113.12 C168.55,112.57 167.83,112.54 166.50,112.79 L 168.90 112.27 ZM 187.47 107.22 C187.25,106.56 186.97,105.97 186.67,105.56 C186.36,105.14 186.09,104.82 185.82,104.61 C186.62,104.99 187.18,105.91 187.47,107.22 ZM 189.62 103.90 C189.93,103.66 190.58,103.02 191.26,102.26 L 189.69 104.00 Z" fill="rgb(61,107,224)"/>
<path d="M 0.00 221.08 L 0.00 195.22 L 3.77 193.71 C5.84,192.88 10.23,191.89 13.52,191.52 C16.81,191.14 24.23,189.15 30.00,187.09 C46.91,181.06 60.32,176.94 62.92,176.97 C64.26,176.99 68.53,175.94 72.42,174.64 C76.32,173.34 81.97,171.76 85.00,171.13 C88.03,170.49 91.40,169.75 92.50,169.48 C93.60,169.20 97.88,168.29 102.00,167.45 C111.84,165.44 134.69,159.21 138.50,157.50 C140.15,156.75 143.30,155.93 145.50,155.67 C150.73,155.04 165.03,149.83 168.72,147.20 C170.32,146.06 172.83,144.83 174.30,144.46 C177.20,143.73 183.66,137.64 184.57,134.78 C184.99,133.46 186.23,132.98 189.32,132.94 C193.11,132.88 193.27,132.78 191.00,131.89 C189.62,131.35 187.78,129.97 186.89,128.82 L 186.58 128.42 L 187.52 129.43 C190.46,132.60 194.73,132.79 198.39,129.91 C201.98,127.08 204.32,122.40 203.17,120.35 C203.00,120.04 202.84,119.83 202.67,119.73 C202.79,119.75 202.89,119.83 202.98,119.96 C203.43,120.70 204.19,119.90 205.02,117.82 C206.66,113.66 208.99,110.87 210.19,111.62 C211.17,112.22 215.00,108.34 215.00,106.74 C215.00,104.98 220.96,98.24 222.99,97.71 C224.99,97.19 225.00,97.57 225.00,161.09 L 225.00 178.00 C225.00,152.15 224.75,131.00 224.43,131.00 C222.73,131.00 218.51,134.20 210.00,141.93 C195.20,155.37 184.07,163.54 172.91,169.15 C168.74,171.25 163.61,174.32 161.52,175.98 C159.43,177.64 157.33,179.00 156.84,179.00 C156.35,179.00 154.28,180.10 152.23,181.44 C150.18,182.78 146.25,184.40 143.50,185.03 C140.75,185.66 136.02,187.41 133.00,188.92 C129.98,190.42 125.25,192.25 122.50,192.98 C119.75,193.70 117.07,194.68 116.55,195.15 C115.21,196.35 111.25,196.21 110.45,194.93 C110.04,194.26 109.25,194.63 108.33,195.93 C105.37,200.16 102.27,200.87 89.32,200.27 C77.82,199.74 77.05,199.83 73.98,202.02 C71.34,203.90 70.40,204.11 68.88,203.16 C66.57,201.71 62.98,201.68 59.32,203.07 C57.78,203.66 53.81,204.52 50.51,205.00 C41.48,206.29 33.02,208.67 31.04,210.47 C29.27,212.06 21.76,213.64 12.05,214.44 C9.23,214.68 5.37,215.38 3.47,216.01 C0.29,217.06 0.00,217.49 0.00,221.08 ZM 42.88 136.51 C44.46,136.61 46.31,136.59 47.95,136.44 C51.02,136.15 53.60,135.36 56.02,133.83 C53.83,135.57 52.25,136.05 49.31,136.46 C47.06,136.77 44.91,136.78 42.88,136.51 ZM 62.75 127.45 C64.58,125.15 65.74,124.06 66.38,124.12 C65.86,124.50 64.49,125.77 62.75,127.45 ZM 96.02 105.59 C96.01,105.72 95.99,105.86 95.96,106.01 C95.86,106.43 95.74,106.86 95.61,107.29 C94.63,110.60 93.84,113.42 93.25,115.81 C93.90,113.03 94.81,109.68 95.98,105.74 C96.00,105.69 96.01,105.64 96.02,105.59 ZM 34.53 133.33 C32.18,131.67 30.21,129.44 28.73,126.67 C30.12,129.26 32.15,131.57 34.53,133.33 ZM 176.28 131.92 C173.45,131.95 170.82,130.55 169.39,127.79 C170.81,130.54 173.45,131.94 176.28,131.92 ZM 66.98 125.30 C66.99,125.45 67.00,125.63 67.00,125.81 C67.00,125.63 66.99,125.46 66.98,125.30 Z" fill="rgb(82,75,234)"/>
<path d="M 0.00 221.08 C0.00,217.49 0.29,217.06 3.47,216.01 C5.37,215.38 9.23,214.68 12.05,214.44 C21.76,213.64 29.27,212.06 31.04,210.47 C33.02,208.67 41.48,206.29 50.51,205.00 C53.81,204.52 57.78,203.66 59.32,203.07 C62.98,201.68 66.57,201.71 68.88,203.16 C70.40,204.11 71.34,203.90 73.98,202.02 C77.05,199.83 77.82,199.74 89.32,200.27 C102.27,200.87 105.37,200.16 108.33,195.93 C109.25,194.63 110.04,194.26 110.45,194.93 C111.25,196.21 115.21,196.35 116.55,195.15 C117.07,194.68 119.75,193.70 122.50,192.98 C125.25,192.25 129.98,190.42 133.00,188.92 C136.02,187.41 140.75,185.66 143.50,185.03 C146.25,184.40 150.18,182.78 152.23,181.44 C154.28,180.10 156.35,179.00 156.84,179.00 C157.33,179.00 159.43,177.64 161.52,175.98 C163.61,174.32 168.74,171.25 172.91,169.15 C184.07,163.54 195.20,155.37 210.00,141.93 C218.51,134.20 222.73,131.00 224.43,131.00 C224.75,131.00 225.00,152.15 225.00,178.00 L 225.00 225.00 L 0.00 225.00 L 0.00 221.08 Z" fill="rgb(111,42,239)"/>
<path d="M 39.79 136.07 C35.26,134.61 31.07,131.05 28.73,126.67 C26.92,123.25 26.51,120.87 26.51,113.50 C26.50,105.89 26.90,103.65 29.10,98.95 C34.47,87.50 42.76,81.11 53.35,80.26 C60.84,79.66 65.14,81.44 67.57,86.14 C70.55,91.89 66.48,101.00 60.93,101.00 C58.62,101.00 58.63,100.48 61.12,94.29 C62.57,90.67 61.58,86.39 58.91,84.71 C53.56,81.35 41.22,90.61 37.69,100.64 C33.40,112.82 35.12,124.03 42.01,128.75 C50.23,134.38 59.28,129.30 66.18,115.18 C71.27,104.76 75.89,100.00 80.93,100.00 C82.92,100.00 85.51,100.67 86.67,101.48 C88.54,102.79 88.93,102.79 90.02,101.48 C91.40,99.81 95.57,99.49 96.49,100.99 C96.83,101.53 96.60,103.67 95.98,105.74 C91.51,120.76 90.91,127.00 93.93,127.00 C97.66,127.00 102.39,117.98 104.41,107.04 C105.51,101.04 105.83,100.47 108.30,100.18 C110.43,99.93 111.21,100.41 111.97,102.43 C112.51,103.84 112.68,106.46 112.34,108.25 L 111.73 111.50 L 114.80 107.36 C118.59,102.22 121.68,100.00 125.02,100.00 C130.41,100.00 131.25,104.27 128.33,116.76 C126.55,124.38 127.08,126.67 130.36,125.42 C133.06,124.38 136.92,116.82 138.04,110.40 C139.56,101.63 140.47,100.00 143.84,100.00 L 146.72 100.00 L 147.25 111.25 C147.55,117.44 148.12,123.31 148.52,124.30 C149.21,125.99 149.42,125.95 151.72,123.80 C153.08,122.54 155.31,119.59 156.69,117.25 L 159.19 113.01 L 156.59 109.93 C153.11,105.79 152.98,99.31 156.31,96.17 C158.85,93.79 162.92,93.32 164.80,95.20 C166.25,96.65 166.38,103.87 165.02,107.43 C163.37,111.80 167.54,110.62 173.69,105.00 C178.28,100.81 179.78,100.00 183.02,100.00 C185.75,100.00 187.30,100.59 188.29,102.00 L 189.69 104.00 L 191.50 102.00 C193.28,100.03 197.44,99.28 198.35,100.76 C198.61,101.17 197.73,105.56 196.41,110.51 C193.43,121.66 193.24,127.00 195.82,127.00 C196.90,127.00 198.56,125.34 199.95,122.87 C201.86,119.49 202.44,119.03 203.17,120.35 C204.32,122.40 201.98,127.08 198.39,129.91 C194.73,132.79 190.46,132.60 187.52,129.43 L 185.14 126.86 L 183.10 128.90 C178.65,133.35 171.99,132.81 169.39,127.79 C168.15,125.39 167.89,123.09 168.32,118.44 L 168.90 112.27 L 166.07 112.89 C164.00,113.33 161.97,115.36 158.55,120.35 C149.99,132.89 145.55,134.96 142.02,128.04 C140.91,125.86 140.00,123.24 140.00,122.21 C140.00,118.50 138.62,119.09 135.83,123.98 C131.73,131.15 125.14,134.09 121.77,130.25 C119.16,127.28 118.91,124.62 120.48,116.42 C122.27,107.07 122.28,107.00 121.04,107.00 C118.21,107.00 112.10,116.85 108.94,126.50 C107.58,130.66 106.86,131.55 104.65,131.82 C102.56,132.07 101.79,131.58 100.99,129.48 L 99.99 126.83 L 96.92 129.42 C93.94,131.92 89.65,132.74 87.40,131.23 C86.79,130.83 85.76,129.47 85.09,128.21 L 83.88 125.91 L 81.04 128.96 C78.90,131.25 77.31,132.00 74.64,132.00 C70.74,132.00 67.00,128.97 67.00,125.81 C67.00,123.14 65.83,123.59 62.74,127.45 C57.99,133.41 53.91,135.89 47.95,136.44 C44.95,136.71 41.28,136.55 39.79,136.07 ZM 82.69 121.83 C85.91,115.67 86.98,106.31 84.58,105.39 C82.23,104.49 77.24,109.46 76.00,113.94 C74.85,118.08 74.68,125.35 75.71,126.38 C77.45,128.12 80.41,126.19 82.69,121.83 ZM 181.71 126.20 C182.38,125.78 183.84,123.35 184.97,120.81 C189.31,110.98 188.30,102.16 183.14,104.92 C181.93,105.57 181.21,106.53 181.53,107.05 C181.85,107.57 181.70,108.00 181.18,108.00 C180.02,108.00 178.32,112.20 177.34,117.50 C175.92,125.15 177.73,128.73 181.71,126.20 ZM 161.93 101.17 C161.98,98.92 161.59,97.97 160.75,98.24 C159.19,98.76 158.61,102.36 159.53,105.85 C160.18,108.31 160.29,108.36 161.04,106.50 C161.49,105.40 161.89,103.00 161.93,101.17 Z" fill="rgb(227,245,248)"/>
</g>
</svg>