<svg xmlns="http://www.w3.org/2000/svg" width="225" height="225" viewBox="0 0 225 225">
<g>
<path d="M 207.76 147.64 L 207.50 204.50 L 169.49 204.76 L 131.48 205.02 L 130.49 202.79 C129.95,201.56 116.36,191.32 100.29,180.03 L 71.08 159.50 L 86.98 158.92 L 87.24 112.57 L 87.50 66.23 L 131.05 89.50 L 124.04 90.22 C115.23,91.13 110.52,93.52 104.63,100.07 C98.14,107.28 95.55,115.92 96.23,127.98 C97.07,142.56 102.66,152.03 113.46,157.14 C123.77,162.02 136.00,160.15 142.92,152.63 C144.26,151.18 145.69,150.00 146.12,150.00 C146.54,150.00 147.02,151.91 147.19,154.25 L 147.50 158.50 L 162.18 158.50 L 162.05 109.66 C161.94,72.01 162.19,61.00 163.11,61.57 C163.77,61.97 173.47,68.97 184.68,77.11 C197.18,86.19 205.63,91.69 206.54,91.35 C207.83,90.85 207.98,97.84 207.76,147.64 ZM 208.00 21.00 L 208.00 27.00 L 18.23 27.00 L 17.63 24.75 C17.30,23.51 17.02,22.16 17.01,21.75 C17.01,21.34 59.97,21.00 112.50,21.00 ZM 137.81 143.98 C131.29,147.95 122.31,146.02 117.22,139.55 C112.07,133.01 112.17,117.87 117.41,109.95 C121.79,103.34 132.04,101.17 138.59,105.47 C143.12,108.43 145.00,113.97 144.98,124.21 C144.95,135.27 142.92,140.86 137.81,143.98 Z" fill="rgb(44,26,35)"/>
<path d="M 70.67 158.33 C71.03,158.70 74.86,159.00 79.17,159.00 L 84.77 159.00 L 71.08 159.50 L 100.29 180.03 C116.36,191.32 129.95,201.56 130.49,202.79 L 131.34 204.71 L 112.92 204.76 C60.90,204.90 18.04,204.71 17.67,204.34 C17.30,203.97 17.00,162.57 17.00,112.33 L 17.00 21.00 L 112.50 21.00 C59.97,21.00 17.01,21.34 17.01,21.75 C17.02,22.16 17.30,23.51 17.63,24.75 L 18.23 27.00 L 207.99 27.00 L 207.78 104.25 C207.64,93.20 207.28,91.06 206.54,91.35 C205.63,91.69 197.18,86.19 184.68,77.11 C173.47,68.97 163.77,61.97 163.11,61.57 C162.50,61.19 162.18,65.91 162.07,80.14 L 162.00 61.00 L 145.00 61.00 L 145.00 98.21 L 141.51 95.15 C137.00,91.18 131.09,89.63 123.29,90.34 C122.57,90.41 121.87,90.49 121.19,90.59 C122.09,90.45 123.04,90.32 124.04,90.22 L 131.05 89.50 L 87.50 66.23 L 87.24 112.57 L 87.00 155.40 L 87.00 66.00 L 70.00 66.00 L 70.00 111.83 C70.00,137.04 70.30,157.97 70.67,158.33 ZM 155.00 158.50 C159.93,158.50 161.62,158.45 162.18,157.71 L 162.18 158.50 ZM 111.58 93.97 C109.23,95.44 107.00,97.43 104.63,100.07 C107.02,97.41 109.22,95.43 111.58,93.97 ZM 208.00 21.00 L 208.01 21.00 L 208.00 24.76 Z" fill="rgb(65,36,52)"/>
<path d="M 0.00 0.00 L 225.00 0.00 L 225.00 225.00 L 0.00 225.00 ZM 207.76 147.64 C207.86,126.15 207.88,112.63 207.78,104.25 L 207.99 27.00 L 208.00 27.00 L 208.00 24.76 L 208.01 21.00 L 17.00 21.00 L 17.00 112.33 C17.00,162.57 17.30,203.97 17.67,204.34 C18.04,204.71 60.90,204.90 112.92,204.76 L 131.34 204.71 L 131.48 205.02 L 169.49 204.76 L 207.50 204.50 ZM 155.00 158.50 L 147.50 158.50 L 147.19 154.25 C147.02,151.91 146.54,150.00 146.12,150.00 C145.69,150.00 144.26,151.18 142.92,152.63 C136.00,160.15 123.77,162.02 113.46,157.14 C102.66,152.03 97.07,142.56 96.23,127.98 C95.55,115.92 98.14,107.28 104.63,100.07 C107.00,97.43 109.23,95.44 111.58,93.97 C114.36,92.23 117.37,91.21 121.19,90.59 C121.87,90.49 122.57,90.41 123.29,90.34 C131.09,89.63 137.00,91.18 141.51,95.15 L 145.00 98.21 L 145.00 61.00 L 162.00 61.00 L 162.07 80.14 C162.02,87.35 162.01,97.00 162.05,109.66 L 162.18 157.71 C161.62,158.45 159.93,158.50 155.00,158.50 ZM 70.67 158.33 C70.30,157.97 70.00,137.04 70.00,111.83 L 70.00 66.00 L 87.00 66.00 L 87.00 155.40 L 86.98 158.92 L 84.77 159.00 L 79.17 159.00 C74.86,159.00 71.03,158.70 70.67,158.33 ZM 137.81 143.98 C142.92,140.86 144.95,135.27 144.98,124.21 C145.00,113.97 143.12,108.43 138.59,105.47 C132.04,101.17 121.79,103.34 117.41,109.95 C112.17,117.87 112.07,133.01 117.22,139.55 C122.31,146.02 131.29,147.95 137.81,143.98 ZM 0.00 223.50 C0.00,224.82 13.17,225.00 112.50,225.00 C211.83,225.00 225.00,224.82 225.00,223.50 C225.00,222.18 211.83,222.00 112.50,222.00 C13.17,222.00 0.00,222.18 0.00,223.50 ZM 0.00 1.50 C0.00,2.82 13.17,3.00 112.50,3.00 C211.83,3.00 225.00,2.82 225.00,1.50 C225.00,0.18 211.83,0.00 112.50,0.00 C13.17,0.00 0.00,0.18 0.00,1.50 Z" fill="rgb(235,66,162)"/>
<path d="M 0.00 223.50 C0.00,222.18 13.17,222.00 112.50,222.00 C211.83,222.00 225.00,222.18 225.00,223.50 C225.00,224.82 211.83,225.00 112.50,225.00 C13.17,225.00 0.00,224.82 0.00,223.50 ZM 0.00 1.50 C0.00,0.18 13.17,0.00 112.50,0.00 C211.83,0.00 225.00,0.18 225.00,1.50 C225.00,2.82 211.83,3.00 112.50,3.00 C13.17,3.00 0.00,2.82 0.00,1.50 Z" fill="rgb(255,252,253)"/>
</g>
</svg>