<svg xmlns="http://www.w3.org/2000/svg" width="225" height="225" viewBox="0 0 225 225">
<g>
<path d="M 118.55 213.55 C115.54,216.55 110.09,216.86 107.65,214.17 C105.36,211.64 105.54,210.84 109.13,207.70 C111.77,205.39 112.82,205.06 115.88,205.62 C121.59,206.67 122.56,209.53 118.55,213.55 ZM 103.44 207.10 C102.68,208.32 97.27,208.24 96.50,207.00 C96.16,206.45 96.36,206.00 96.94,206.00 C97.56,206.00 98.00,203.70 98.00,200.50 C98.00,195.06 97.97,195.00 95.00,195.00 C92.04,195.00 92.00,195.06 92.00,200.42 C92.00,203.81 92.47,206.02 93.25,206.34 C93.94,206.62 92.49,206.88 90.03,206.92 C85.70,207.00 85.63,206.95 87.78,205.44 C89.56,204.19 90.00,202.92 90.00,198.94 C90.00,196.13 89.54,194.00 88.94,194.00 C88.36,194.00 88.20,194.52 88.60,195.15 C89.04,195.88 88.87,196.04 88.14,195.59 C85.77,194.12 88.12,193.27 94.23,193.38 L 100.50 193.50 L 100.80 199.30 C101.00,203.22 101.57,205.28 102.55,205.66 C103.34,205.96 103.74,206.61 103.44,207.10 ZM 78.93 206.54 C75.52,208.30 75.17,208.30 72.05,206.57 C67.77,204.20 66.72,198.28 70.00,195.00 C72.54,192.46 74.93,192.31 72.65,194.83 C68.21,199.74 74.18,209.42 78.80,204.80 C80.70,202.90 80.24,197.24 78.00,195.00 C76.11,193.11 76.10,193.00 77.85,193.00 C81.74,193.00 84.21,198.69 82.38,203.46 C82.04,204.35 80.48,205.73 78.93,206.54 ZM 136.75 204.36 C132.95,208.54 128.67,208.47 125.25,204.18 C122.55,200.80 125.21,193.00 129.07,193.00 C129.66,193.00 129.44,193.71 128.57,194.57 C125.42,197.73 127.80,206.00 131.86,206.00 C136.20,206.00 137.64,198.64 134.00,195.00 C132.04,193.04 132.04,193.00 133.94,193.00 C136.28,193.00 139.00,196.59 139.00,199.67 C139.00,200.89 137.99,203.00 136.75,204.36 ZM 64.25 206.34 C64.94,206.62 63.76,206.88 61.63,206.92 C58.38,206.99 57.95,206.77 58.94,205.57 C59.59,204.79 59.98,202.20 59.81,199.82 C59.55,196.22 59.13,195.45 57.25,195.18 C53.95,194.71 54.51,193.00 57.96,193.00 C61.63,193.00 63.00,195.28 63.00,201.35 C63.00,204.00 63.51,206.04 64.25,206.34 ZM 111.18 213.94 C114.50,215.27 114.77,215.23 117.07,212.93 C119.93,210.07 118.01,207.79 113.09,208.20 C110.24,208.44 109.43,208.96 109.18,210.76 C108.95,212.35 109.54,213.28 111.18,213.94 ZM 44.66 205.87 C46.17,206.75 45.69,206.94 42.06,206.97 C38.11,207.00 37.82,206.85 39.45,205.66 C40.96,204.56 41.19,203.34 40.80,198.62 C40.40,193.80 40.57,192.96 41.91,193.22 C43.19,193.47 43.43,194.64 43.16,199.17 C42.89,203.80 43.15,204.99 44.66,205.87 ZM 116.80 200.80 C115.07,202.53 113.52,202.28 114.99,200.51 C116.55,198.63 115.48,194.00 113.48,194.00 C112.67,194.00 112.00,193.50 112.00,192.89 C112.00,192.17 112.95,192.04 114.75,192.54 C116.26,192.96 118.29,193.33 119.25,193.36 C121.38,193.44 121.62,195.00 119.50,195.00 C118.60,195.00 118.00,195.92 118.00,197.30 C118.00,198.57 117.46,200.14 116.80,200.80 ZM 110.50 199.99 C112.12,203.14 111.68,203.63 108.75,201.92 C106.74,200.75 106.40,196.00 108.20,194.20 C110.08,192.32 111.18,192.80 110.00,194.99 C109.20,196.49 109.32,197.73 110.50,199.99 Z" fill="rgb(58,58,62)"/>
<path d="M 87.53 195.12 C87.67,195.27 87.88,195.42 88.14,195.59 C88.87,196.04 89.04,195.88 88.60,195.15 C88.20,194.52 88.36,194.00 88.94,194.00 C89.54,194.00 90.00,196.13 90.00,198.94 C90.00,202.92 89.56,204.19 87.78,205.44 C87.51,205.63 87.28,205.79 87.09,205.94 C87.92,205.17 88.12,203.29 87.82,199.22 ZM 53.00 200.50 C53.00,203.52 52.55,206.00 52.00,206.00 C51.45,206.00 51.00,203.52 51.00,200.50 C51.00,197.48 51.45,195.00 52.00,195.00 C52.55,195.00 53.00,197.48 53.00,200.50 ZM 114.78 205.45 C112.52,205.18 111.42,205.69 109.13,207.70 C106.81,209.73 105.92,210.78 106.19,211.95 C105.86,210.88 106.31,209.99 107.54,208.96 C108.55,208.13 108.74,207.34 108.11,206.71 C107.47,206.07 107.66,205.20 108.65,204.20 C109.75,203.11 109.96,202.73 109.27,202.22 C110.43,202.85 111.11,203.04 111.34,202.77 C111.39,203.15 111.38,203.45 111.31,203.65 C111.08,204.31 112.44,205.01 114.78,205.45 ZM 93.94 193.35 L 100.50 193.50 L 94.23 193.38 C90.49,193.31 88.16,193.60 87.46,194.17 L 87.39 193.21 ZM 118.55 213.55 C120.84,211.25 121.51,209.33 120.59,207.91 C121.55,209.32 120.88,211.21 118.55,213.55 ZM 108.41 201.67 C107.64,201.11 107.18,199.86 107.06,198.51 C107.19,199.80 107.65,201.01 108.41,201.67 ZM 86.87 206.10 C86.78,206.18 86.69,206.25 86.62,206.31 C86.67,206.25 86.75,206.18 86.87,206.10 Z" fill="rgb(72,72,75)"/>
<path d="M 110.50 199.99 C110.35,199.70 110.21,199.43 110.10,199.17 C111.14,200.88 113.61,201.48 114.96,200.54 C114.39,201.25 114.30,201.71 114.51,201.89 C114.43,201.93 114.35,201.96 114.27,202.00 C112.94,202.62 111.79,203.32 111.29,203.79 C111.29,203.74 111.30,203.70 111.31,203.65 C111.38,203.45 111.39,203.15 111.34,202.77 C111.60,202.46 111.30,201.55 110.50,199.99 ZM 115.00 142.50 C115.00,143.32 114.55,144.00 114.00,144.00 C113.45,144.00 113.00,143.32 113.00,142.50 C113.00,141.68 113.45,141.00 114.00,141.00 C114.55,141.00 115.00,141.68 115.00,142.50 ZM 118.05 196.67 C118.20,195.65 118.75,195.00 119.50,195.00 C120.57,195.00 121.04,194.60 120.96,194.19 C121.06,194.60 120.62,195.00 119.57,195.00 C118.95,195.00 118.37,195.67 118.05,196.67 ZM 115.54 196.43 C115.10,195.11 114.31,194.00 113.48,194.00 C114.45,194.00 115.20,195.09 115.54,196.43 ZM 120.56 207.88 C120.64,207.99 120.71,208.10 120.76,208.21 C120.71,208.11 120.65,208.01 120.59,207.91 C120.58,207.90 120.57,207.89 120.56,207.88 Z" fill="rgb(135,135,136)"/>
<path d="M 115.00 142.50 C115.00,141.68 114.55,141.00 114.00,141.00 C113.61,141.00 113.26,141.35 113.10,141.84 C113.21,141.38 113.44,140.98 113.78,140.83 C114.21,140.65 114.20,114.40 113.76,82.50 C113.32,50.60 113.08,22.92 113.23,21.00 L 113.50 17.50 L 115.82 21.85 C117.10,24.25 120.82,29.08 124.09,32.59 C148.43,58.76 156.43,95.65 144.12,125.02 C140.49,133.68 133.95,143.21 126.79,150.25 C123.58,153.41 120.57,156.00 120.10,156.00 C118.58,156.00 117.13,153.52 115.85,148.71 C115.15,146.12 114.23,144.00 113.79,144.00 C113.36,144.00 113.10,143.50 113.04,142.90 C113.15,143.53 113.54,144.00 114.00,144.00 C114.55,144.00 115.00,143.32 115.00,142.50 Z" fill="rgb(89,150,54)"/>
<path d="M 112.58 149.97 C112.21,153.25 111.42,156.24 110.83,156.60 C109.05,157.71 93.51,140.78 88.54,132.32 C82.89,122.70 80.53,115.32 78.99,102.43 C75.78,75.69 84.53,49.86 103.51,30.05 C108.01,25.35 112.16,20.63 112.74,19.57 C112.99,19.10 113.20,18.77 113.41,18.62 L 113.23 21.00 C113.08,22.92 113.32,50.60 113.76,82.50 C114.20,114.40 114.21,140.65 113.78,140.83 C113.44,140.98 113.21,141.38 113.10,141.84 C113.04,142.04 113.00,142.26 113.00,142.50 C113.00,142.64 113.01,142.77 113.04,142.90 C113.10,143.50 113.36,144.00 113.79,144.00 C113.82,144.00 113.85,144.01 113.88,144.02 C113.50,144.29 112.93,146.86 112.58,149.97 ZM 136.18 139.10 C132.50,144.57 128.41,149.35 124.42,152.62 C124.11,152.87 123.81,153.12 123.52,153.34 C124.51,152.44 125.64,151.38 126.79,150.25 C130.13,146.96 133.34,143.13 136.18,139.10 ZM 145.61 69.23 C146.39,71.53 147.10,73.89 147.77,76.31 C148.36,78.48 148.80,81.41 149.09,84.73 C148.40,79.53 147.24,74.34 145.61,69.23 ZM 148.79 108.72 C148.49,111.15 148.11,113.30 147.64,115.00 C147.11,116.94 146.45,118.94 145.68,120.96 C147.06,116.98 148.10,112.88 148.79,108.72 ZM 114.29 18.98 C114.69,19.48 115.20,20.43 115.96,21.93 C117.16,24.28 120.82,29.08 124.09,32.59 C126.22,34.89 128.23,37.26 130.11,39.71 C128.23,37.26 126.22,34.89 124.09,32.59 C120.82,29.08 117.10,24.25 115.82,21.85 ZM 118.31 154.82 C117.38,153.97 116.69,152.05 115.89,148.94 C115.73,148.31 115.55,147.70 115.38,147.14 C115.54,147.63 115.70,148.16 115.85,148.71 C116.62,151.60 117.45,153.64 118.31,154.82 Z" fill="rgb(107,171,71)"/>
<path d="M 159.99 205.51 C156.34,207.39 142.95,207.65 144.80,205.80 C145.56,205.04 146.00,201.22 146.00,195.37 C146.00,187.43 145.76,186.08 144.25,185.69 C143.29,185.44 146.47,185.18 151.33,185.12 C159.82,185.00 160.26,185.11 163.08,187.92 C165.41,190.26 166.00,191.72 166.00,195.20 C166.00,200.18 164.15,203.36 159.99,205.51 ZM 184.37 204.93 C182.26,206.58 180.30,207.00 174.67,207.00 C168.83,207.00 167.90,206.79 169.24,205.75 C170.47,204.80 170.91,202.56 171.04,196.50 L 171.05 196.07 C171.21,188.56 171.24,186.77 170.40,186.12 C170.12,185.91 169.75,185.82 169.25,185.69 C168.29,185.44 170.92,185.18 175.10,185.12 C181.60,185.02 182.96,185.30 184.57,187.08 C186.32,189.01 186.34,189.35 184.86,191.92 C183.38,194.50 183.40,194.77 185.14,195.85 C187.96,197.62 187.55,202.42 184.37,204.93 ZM 150.67 204.33 C151.68,205.35 156.89,205.13 159.02,203.99 C161.65,202.58 163.07,196.85 161.87,192.50 C160.82,188.69 156.96,186.00 152.55,186.00 C150.01,186.00 150.00,186.03 150.00,194.83 C150.00,199.69 150.30,203.97 150.67,204.33 ZM 112.58 149.97 C112.93,146.86 113.50,144.29 113.88,144.02 C114.24,144.21 114.83,145.46 115.38,147.14 C115.55,147.70 115.73,148.31 115.89,148.94 C116.69,152.05 117.38,153.97 118.31,154.82 C118.89,155.60 119.49,156.00 120.10,156.00 C120.20,156.00 120.42,155.88 120.73,155.66 C117.78,158.90 117.01,162.57 117.01,170.25 C117.00,173.96 116.66,176.96 116.25,176.92 C113.70,176.65 113.00,175.42 112.98,171.17 C112.93,162.64 111.97,159.72 105.20,152.52 C108.03,155.27 110.23,156.98 110.83,156.60 C111.42,156.24 112.21,153.25 112.58,149.97 ZM 175.67 204.33 C176.03,204.70 177.59,205.00 179.13,205.00 C181.75,205.00 184.00,202.75 184.00,200.14 C184.00,198.18 180.80,196.00 177.93,196.00 C175.20,196.00 175.00,196.26 175.00,199.83 C175.00,201.94 175.30,203.97 175.67,204.33 ZM 175.00 190.06 C175.00,194.05 175.07,194.12 178.25,193.81 C180.77,193.57 181.57,192.98 181.83,191.19 C182.25,188.20 180.37,186.00 177.38,186.00 C175.26,186.00 175.00,186.45 175.00,190.06 ZM 101.22 148.42 C93.61,140.56 88.38,133.33 84.82,125.28 C85.88,127.57 87.10,129.87 88.54,132.32 C91.09,136.66 96.40,143.21 101.22,148.42 ZM 145.65 121.04 C145.66,121.01 145.67,120.99 145.68,120.96 C146.45,118.94 147.11,116.94 147.64,115.00 C147.10,116.98 146.43,119.00 145.65,121.04 Z" fill="rgb(193,194,189)"/>
<path d="M 0.00 112.50 L 0.00 0.00 L 112.50 0.00 L 225.00 0.00 L 225.00 112.50 L 225.00 225.00 L 112.50 225.00 L 0.00 225.00 L 0.00 112.50 ZM 118.55 213.55 C122.72,209.37 121.58,206.59 115.25,205.53 C112.91,205.14 111.01,204.53 111.02,204.16 C111.03,203.80 112.50,202.82 114.27,202.00 C116.58,200.93 117.59,199.72 117.82,197.75 C118.00,196.18 118.75,195.00 119.57,195.00 C121.64,195.00 121.34,193.44 119.25,193.36 C118.29,193.33 116.26,192.96 114.75,192.54 C112.95,192.04 112.00,192.17 112.00,192.89 C112.00,193.50 112.67,194.00 113.48,194.00 C115.11,194.00 116.58,198.26 115.54,199.94 C114.45,201.70 111.14,201.13 110.00,199.00 C109.24,197.58 109.24,196.42 110.00,195.00 C111.18,192.80 110.09,192.31 108.20,194.20 C106.47,195.93 106.72,200.74 108.59,201.79 C110.01,202.59 110.02,202.84 108.65,204.20 C107.66,205.20 107.47,206.07 108.11,206.71 C108.74,207.34 108.55,208.13 107.54,208.96 C105.57,210.60 105.59,211.89 107.65,214.17 C110.09,216.86 115.54,216.55 118.55,213.55 ZM 78.93 206.54 C80.48,205.73 82.04,204.35 82.38,203.46 C84.21,198.69 81.74,193.00 77.85,193.00 C76.10,193.00 76.11,193.11 78.00,195.00 C80.24,197.24 80.70,202.90 78.80,204.80 C74.18,209.42 68.21,199.74 72.65,194.83 C74.93,192.31 72.54,192.46 70.00,195.00 C66.72,198.28 67.77,204.20 72.05,206.57 C75.17,208.30 75.52,208.30 78.93,206.54 ZM 103.44 207.10 C103.74,206.61 103.34,205.96 102.55,205.66 C101.57,205.28 101.00,203.22 100.80,199.30 L 100.50 193.50 L 93.94 193.35 L 87.39 193.21 L 87.82 199.22 C88.14,203.61 87.89,205.46 86.88,206.10 C85.98,206.66 87.07,206.95 90.00,206.91 C92.47,206.87 93.94,206.62 93.25,206.34 C92.47,206.02 92.00,203.81 92.00,200.42 C92.00,195.06 92.04,195.00 95.00,195.00 C97.97,195.00 98.00,195.06 98.00,200.50 C98.00,203.70 97.56,206.00 96.94,206.00 C96.36,206.00 96.16,206.45 96.50,207.00 C97.27,208.24 102.68,208.32 103.44,207.10 ZM 136.75 204.36 C137.99,203.00 139.00,200.89 139.00,199.67 C139.00,196.59 136.28,193.00 133.94,193.00 C132.04,193.00 132.04,193.04 134.00,195.00 C137.64,198.64 136.20,206.00 131.86,206.00 C127.80,206.00 125.42,197.73 128.57,194.57 C129.44,193.71 129.66,193.00 129.07,193.00 C125.21,193.00 122.55,200.80 125.25,204.18 C128.67,208.47 132.95,208.54 136.75,204.36 ZM 44.66 205.87 C43.15,204.99 42.89,203.80 43.16,199.17 C43.43,194.64 43.19,193.47 41.91,193.22 C40.57,192.96 40.40,193.80 40.80,198.62 C41.19,203.34 40.96,204.56 39.45,205.66 C37.82,206.85 38.11,207.00 42.06,206.97 C45.69,206.94 46.17,206.75 44.66,205.87 ZM 64.25 206.34 C63.51,206.04 63.00,204.00 63.00,201.35 C63.00,195.28 61.63,193.00 57.96,193.00 C54.51,193.00 53.95,194.71 57.25,195.18 C59.13,195.45 59.55,196.22 59.81,199.82 C59.98,202.20 59.59,204.79 58.94,205.57 C57.95,206.77 58.38,206.99 61.63,206.92 C63.76,206.88 64.94,206.62 64.25,206.34 ZM 159.99 205.51 C164.15,203.36 166.00,200.18 166.00,195.20 C166.00,191.72 165.41,190.26 163.08,187.92 C160.26,185.11 159.82,185.00 151.33,185.12 C146.47,185.18 143.29,185.44 144.25,185.69 C145.76,186.08 146.00,187.43 146.00,195.37 C146.00,201.22 145.56,205.04 144.80,205.80 C142.95,207.65 156.34,207.39 159.99,205.51 ZM 184.37 204.93 C187.55,202.42 187.96,197.62 185.14,195.85 C183.40,194.77 183.38,194.50 184.86,191.92 C186.34,189.35 186.32,189.01 184.57,187.08 C182.96,185.30 181.60,185.02 175.10,185.12 C170.92,185.18 168.29,185.44 169.25,185.69 C171.28,186.22 171.26,186.07 171.04,196.50 C170.91,202.56 170.47,204.80 169.24,205.75 C167.90,206.79 168.83,207.00 174.67,207.00 C180.30,207.00 182.26,206.58 184.37,204.93 ZM 53.00 200.50 C53.00,197.48 52.55,195.00 52.00,195.00 C51.45,195.00 51.00,197.48 51.00,200.50 C51.00,203.52 51.45,206.00 52.00,206.00 C52.55,206.00 53.00,203.52 53.00,200.50 ZM 117.01 170.25 C117.01,160.34 118.30,157.10 123.88,152.86 C133.35,145.67 143.77,129.08 147.64,115.00 C150.08,106.14 150.15,85.01 147.77,76.31 C142.97,58.78 135.32,44.67 124.09,32.59 C120.82,29.08 117.16,24.28 115.96,21.93 C113.99,18.05 113.68,17.83 112.74,19.57 C112.16,20.63 108.01,25.35 103.51,30.05 C84.53,49.86 75.78,75.69 78.99,102.43 C81.34,122.07 87.49,134.53 102.18,149.40 C111.70,159.04 112.92,161.51 112.98,171.17 C113.00,175.42 113.70,176.65 116.25,176.92 C116.66,176.96 117.00,173.96 117.01,170.25 ZM 111.18 213.94 C109.54,213.28 108.95,212.35 109.18,210.76 C109.43,208.96 110.24,208.44 113.09,208.20 C118.01,207.79 119.93,210.07 117.07,212.93 C114.77,215.23 114.50,215.27 111.18,213.94 ZM 150.67 204.33 C150.30,203.97 150.00,199.69 150.00,194.83 C150.00,186.03 150.01,186.00 152.55,186.00 C156.96,186.00 160.82,188.69 161.87,192.50 C163.07,196.85 161.65,202.58 159.02,203.99 C156.89,205.13 151.68,205.35 150.67,204.33 ZM 175.67 204.33 C175.30,203.97 175.00,201.94 175.00,199.83 C175.00,196.26 175.20,196.00 177.93,196.00 C180.80,196.00 184.00,198.18 184.00,200.14 C184.00,202.75 181.75,205.00 179.13,205.00 C177.59,205.00 176.03,204.70 175.67,204.33 ZM 175.00 190.06 C175.00,186.45 175.26,186.00 177.38,186.00 C180.37,186.00 182.25,188.20 181.83,191.19 C181.57,192.98 180.77,193.57 178.25,193.81 C175.07,194.12 175.00,194.05 175.00,190.06 Z" fill="rgb(254,254,254)"/>
</g>
</svg>