<svg version="1.1" id="Layer_1" xmlns="http://www.w3.org/2000/svg" xmlns:xlink="http://www.w3.org/1999/xlink" x="0px" y="0px"
	 width="100%" viewBox="0 0 225 225" enable-background="new 0 0 225 225" xml:space="preserve">
<path fill="#FEFEFE" opacity="1.000000" stroke="none" 
	d="
M126.000000,226.000000 
	C84.000000,226.000000 42.500004,226.000000 1.000005,226.000000 
	C1.000004,151.000000 1.000004,76.000015 1.000002,1.000016 
	C75.999992,1.000010 150.999985,1.000010 225.999969,1.000005 
	C225.999985,75.999985 225.999985,150.999969 226.000000,225.999969 
	C192.833328,226.000000 159.666672,226.000000 126.000000,226.000000 
M112.641670,7.226994 
	C100.486328,8.025344 88.432968,9.289408 77.255852,14.723282 
	C68.955696,18.758493 60.020344,21.837383 52.433407,26.929691 
	C16.664345,50.937672 -0.773451,96.334282 8.428499,138.372604 
	C18.808388,185.792221 59.673477,220.815704 106.754173,223.251541 
	C144.536804,225.206329 175.500443,211.904160 199.300568,181.668335 
	C212.044952,165.477768 219.913269,147.525391 221.666687,127.482872 
	C225.632675,82.149597 207.841080,46.873741 169.397308,22.477596 
	C152.490417,11.748601 133.485062,7.528405 112.641670,7.226994 
z"/>
<path fill="#15151A" opacity="1.000000" stroke="none" 
	d="
M113.106018,7.214690 
	C133.485062,7.528405 152.490417,11.748601 169.397308,22.477596 
	C207.841080,46.873741 225.632675,82.149597 221.666687,127.482872 
	C219.913269,147.525391 212.044952,165.477768 199.300568,181.668335 
	C175.500443,211.904160 144.536804,225.206329 106.754173,223.251541 
	C59.673477,220.815704 18.808388,185.792221 8.428499,138.372604 
	C-0.773451,96.334282 16.664345,50.937672 52.433407,26.929691 
	C60.020344,21.837383 68.955696,18.758493 77.255852,14.723282 
	C88.432968,9.289408 100.486328,8.025344 113.106018,7.214690 
M107.501808,106.875725 
	C112.334488,106.875740 117.181870,106.640724 121.995689,106.942062 
	C126.779472,107.241508 130.607147,106.289604 132.190582,101.233231 
	C135.424805,103.185738 138.279343,104.909019 141.253494,106.704514 
	C143.534866,99.846947 141.341446,96.390732 135.828278,94.157021 
	C131.237473,92.297020 126.939255,89.703339 122.555145,87.353096 
	C121.511871,86.793816 120.643044,85.909119 119.193535,84.786530 
	C125.247200,81.414101 130.379440,77.966324 135.970581,75.605324 
	C141.591995,73.231560 143.273544,69.747902 141.474533,63.859859 
	C138.399597,65.407333 135.389282,66.922287 133.501328,67.872421 
	C130.434814,65.930191 128.228973,63.361492 125.929916,63.275166 
	C114.614243,62.850288 103.272842,63.000153 91.942757,63.134747 
	C88.392960,63.176918 85.984100,65.691704 86.511833,68.929932 
	C87.070602,72.358627 83.144379,77.236137 89.601433,79.253830 
	C93.288040,80.405823 96.611969,82.718430 100.841003,84.889221 
	C95.683426,87.635193 91.073341,90.089661 86.305458,92.628151 
	C86.305458,94.702431 86.292519,96.865005 86.307961,99.027390 
	C86.349258,104.810249 88.306358,106.821266 94.005257,106.869370 
	C98.171036,106.904541 102.337357,106.875916 107.501808,106.875725 
M130.129211,146.729584 
	C129.029175,140.089035 131.029449,134.651230 135.247314,134.370651 
	C140.253479,134.037659 145.321014,134.627426 150.480972,134.821777 
	C151.275330,129.012543 150.741013,128.132996 144.508942,127.155785 
	C142.396057,126.824478 140.198486,126.878777 138.048218,126.966827 
	C128.484497,127.358398 121.659302,135.130356 122.134590,144.310532 
	C122.612793,153.546936 134.221588,160.955353 141.104599,160.034439 
	C150.330887,158.800003 151.617981,157.482620 150.187180,150.335480 
	C139.436584,154.032486 135.156906,153.401733 130.129211,146.729584 
M50.554913,126.898987 
	C39.737171,127.347534 32.737125,134.333038 33.046387,143.819214 
	C33.355812,153.310257 44.230354,160.358002 51.147408,160.024841 
	C59.324673,159.630997 62.299618,156.745758 61.170788,150.949661 
	C57.094009,151.412689 53.066177,152.348419 49.080910,152.192947 
	C44.798122,152.025894 41.533859,149.668900 40.738194,145.020645 
	C40.074429,141.142929 40.588882,136.776932 44.330677,135.505554 
	C49.619469,133.708557 55.498409,132.062836 60.889721,136.080414 
	C62.325558,129.466248 61.708733,128.352997 55.928200,127.234497 
	C54.470020,126.952347 52.944931,127.015976 50.554913,126.898987 
M116.387962,140.257263 
	C113.682053,138.855194 110.738075,135.976318 108.321007,136.365967 
	C103.639717,137.120621 99.055099,137.982178 94.041374,136.954910 
	C94.041374,142.640686 94.041382,147.620697 94.041382,152.600708 
	C94.041382,157.692032 94.041374,162.783356 94.041374,167.636230 
	C96.516876,167.636230 98.270393,167.636230 100.374710,167.636230 
	C100.374710,163.934265 100.374710,160.558136 100.374710,158.024048 
	C104.292931,158.282898 108.448883,159.785217 111.417999,158.514465 
	C119.130806,155.213516 120.803886,148.395370 116.387962,140.257263 
M87.441055,137.059525 
	C85.149117,137.127167 82.659134,137.809555 80.602440,137.146973 
	C74.472000,135.171951 71.193611,135.814346 66.920235,140.724380 
	C64.363991,143.661469 64.191734,150.069321 66.520622,154.080353 
	C69.293831,158.856674 73.641975,159.461151 78.597488,158.937851 
	C80.501495,158.736801 82.509567,159.030167 84.410591,159.402634 
	C87.555786,160.018860 90.019768,160.214371 89.843987,155.739594 
	C89.641663,150.589249 89.878830,145.422470 89.729889,140.268478 
	C89.698868,139.194702 88.813957,138.145584 87.441055,137.059525 
M160.114960,137.321060 
	C158.147141,137.117447 156.179306,136.913834 154.033875,136.691833 
	C154.033875,141.460358 153.966995,145.446487 154.049774,149.429520 
	C154.169556,155.193268 156.931519,158.206131 162.661240,158.974030 
	C163.633621,159.104340 164.644363,159.037384 165.590302,159.260834 
	C169.724747,160.237488 176.517685,155.956284 176.734146,151.863205 
	C176.993439,146.959885 176.795380,142.032379 176.795380,137.047150 
	C174.177536,137.047150 172.270279,137.047150 170.154236,137.047150 
	C170.154236,141.176605 170.331406,144.997116 170.094559,148.791779 
	C169.924774,151.511902 168.894836,153.964005 165.481659,153.958160 
	C162.247452,153.952637 160.552444,152.121460 160.399155,149.029236 
	C160.218506,145.384430 160.293015,141.726990 160.114960,137.321060 
M190.627853,153.936905 
	C184.336227,151.909164 187.778900,146.924637 186.899948,143.063263 
	C189.820038,142.426178 192.328552,141.878891 194.950714,141.306808 
	C194.950714,139.902466 194.950714,138.476761 194.950714,136.717926 
	C192.332581,136.717926 189.915085,136.717926 187.441895,136.717926 
	C187.109238,135.231583 186.844971,134.050812 186.410904,132.111343 
	C184.210678,133.808228 181.089890,135.037674 180.964905,136.519760 
	C180.480743,142.260986 180.377258,148.183517 181.369202,153.820847 
	C181.727036,155.854446 185.362228,157.770508 187.884872,158.815552 
	C189.825516,159.619492 192.365860,158.975739 194.883347,158.975739 
	C194.883347,156.773239 194.883347,155.175278 194.883347,153.415405 
	C193.640091,153.608017 192.541794,153.778183 190.627853,153.936905 
z"/>
<path fill="#F5F5F5" opacity="1.000000" stroke="none" 
	d="
M107.002625,106.875725 
	C102.337357,106.875916 98.171036,106.904541 94.005257,106.869370 
	C88.306358,106.821266 86.349258,104.810249 86.307961,99.027390 
	C86.292519,96.865005 86.305458,94.702431 86.305458,92.628151 
	C91.073341,90.089661 95.683426,87.635193 100.841003,84.889221 
	C96.611969,82.718430 93.288040,80.405823 89.601433,79.253830 
	C83.144379,77.236137 87.070602,72.358627 86.511833,68.929932 
	C85.984100,65.691704 88.392960,63.176918 91.942757,63.134747 
	C103.272842,63.000153 114.614243,62.850288 125.929916,63.275166 
	C128.228973,63.361492 130.434814,65.930191 133.501328,67.872421 
	C135.389282,66.922287 138.399597,65.407333 141.474533,63.859859 
	C143.273544,69.747902 141.591995,73.231560 135.970581,75.605324 
	C130.379440,77.966324 125.247200,81.414101 119.193535,84.786530 
	C120.643044,85.909119 121.511871,86.793816 122.555145,87.353096 
	C126.939255,89.703339 131.237473,92.297020 135.828278,94.157021 
	C141.341446,96.390732 143.534866,99.846947 141.253494,106.704514 
	C138.279343,104.909019 135.424805,103.185738 132.190582,101.233231 
	C130.607147,106.289604 126.779472,107.241508 121.995689,106.942062 
	C117.181870,106.640724 112.334488,106.875740 107.002625,106.875725 
M121.740875,74.060509 
	C122.867661,73.372803 123.994446,72.685089 125.565193,71.726410 
	C114.362686,71.726410 103.973999,71.726410 93.585320,71.726410 
	C93.534035,71.974869 93.482750,72.223320 93.431465,72.471779 
	C94.900024,73.081459 96.368576,73.691139 98.278885,74.836609 
	C105.855721,80.768059 113.347351,80.636818 120.751221,74.516327 
	C120.876007,74.413177 120.960426,74.261200 121.740875,74.060509 
M110.917160,98.345383 
	C114.273010,98.261627 117.628860,98.177872 121.718826,98.282257 
	C122.684196,98.159546 123.649574,98.036835 125.635750,97.784370 
	C123.408447,96.767342 122.248863,96.237846 120.645195,95.119499 
	C118.839455,94.290718 116.883957,93.683632 115.259628,92.586319 
	C112.025665,90.401627 109.017075,88.479378 105.173134,91.513306 
	C102.957687,93.261902 100.401428,94.578690 97.215233,95.880066 
	C96.161224,96.425888 95.107216,96.971718 92.939514,98.094276 
	C99.536987,98.094276 104.785912,98.094276 110.917160,98.345383 
z"/>
<path fill="#F4F4F4" opacity="1.000000" stroke="none" 
	d="
M130.339279,147.085388 
	C135.156906,153.401733 139.436584,154.032486 150.187180,150.335480 
	C151.617981,157.482620 150.330887,158.800003 141.104599,160.034439 
	C134.221588,160.955353 122.612793,153.546936 122.134590,144.310532 
	C121.659302,135.130356 128.484497,127.358398 138.048218,126.966827 
	C140.198486,126.878777 142.396057,126.824478 144.508942,127.155785 
	C150.741013,128.132996 151.275330,129.012543 150.480972,134.821777 
	C145.321014,134.627426 140.253479,134.037659 135.247314,134.370651 
	C131.029449,134.651230 129.029175,140.089035 130.339279,147.085388 
z"/>
<path fill="#F4F4F4" opacity="1.000000" stroke="none" 
	d="
M51.002750,126.909851 
	C52.944931,127.015976 54.470020,126.952347 55.928200,127.234497 
	C61.708733,128.352997 62.325558,129.466248 60.889721,136.080414 
	C55.498409,132.062836 49.619469,133.708557 44.330677,135.505554 
	C40.588882,136.776932 40.074429,141.142929 40.738194,145.020645 
	C41.533859,149.668900 44.798122,152.025894 49.080910,152.192947 
	C53.066177,152.348419 57.094009,151.412689 61.170788,150.949661 
	C62.299618,156.745758 59.324673,159.630997 51.147408,160.024841 
	C44.230354,160.358002 33.355812,153.310257 33.046387,143.819214 
	C32.737125,134.333038 39.737171,127.347534 51.002750,126.909851 
z"/>
<path fill="#F7F7F7" opacity="1.000000" stroke="none" 
	d="
M116.611526,140.569901 
	C120.803886,148.395370 119.130806,155.213516 111.417999,158.514465 
	C108.448883,159.785217 104.292931,158.282898 100.374710,158.024048 
	C100.374710,160.558136 100.374710,163.934265 100.374710,167.636230 
	C98.270393,167.636230 96.516876,167.636230 94.041374,167.636230 
	C94.041374,162.783356 94.041382,157.692032 94.041382,152.600708 
	C94.041382,147.620697 94.041374,142.640686 94.041374,136.954910 
	C99.055099,137.982178 103.639717,137.120621 108.321007,136.365967 
	C110.738075,135.976318 113.682053,138.855194 116.611526,140.569901 
M104.114098,142.619019 
	C102.753456,143.829391 100.305679,145.010834 100.272507,146.256546 
	C100.214531,148.434387 101.039978,151.643311 102.603539,152.590317 
	C104.379784,153.666138 107.934570,153.574875 109.664032,152.418015 
	C111.138992,151.431412 111.814339,148.152557 111.616264,146.000687 
	C111.256004,142.086929 107.990120,141.842331 104.114098,142.619019 
z"/>
<path fill="#F0F0F0" opacity="1.000000" stroke="none" 
	d="
M87.881805,137.072327 
	C88.813957,138.145584 89.698868,139.194702 89.729889,140.268478 
	C89.878830,145.422470 89.641663,150.589249 89.843987,155.739594 
	C90.019768,160.214371 87.555786,160.018860 84.410591,159.402634 
	C82.509567,159.030167 80.501495,158.736801 78.597488,158.937851 
	C73.641975,159.461151 69.293831,158.856674 66.520622,154.080353 
	C64.191734,150.069321 64.363991,143.661469 66.920235,140.724380 
	C71.193611,135.814346 74.472000,135.171951 80.602440,137.146973 
	C82.659134,137.809555 85.149117,137.127167 87.881805,137.072327 
M75.129745,142.171021 
	C71.575455,144.328506 70.340248,148.715500 72.690651,151.604584 
	C75.021614,154.469772 78.409775,155.093292 80.884689,152.601837 
	C82.421013,151.055222 83.038597,147.786911 82.769806,145.440140 
	C82.333557,141.631271 78.910378,141.808823 75.129745,142.171021 
z"/>
<path fill="#F2F2F2" opacity="1.000000" stroke="none" 
	d="
M160.185913,137.698044 
	C160.293015,141.726990 160.218506,145.384430 160.399155,149.029236 
	C160.552444,152.121460 162.247452,153.952637 165.481659,153.958160 
	C168.894836,153.964005 169.924774,151.511902 170.094559,148.791779 
	C170.331406,144.997116 170.154236,141.176605 170.154236,137.047150 
	C172.270279,137.047150 174.177536,137.047150 176.795380,137.047150 
	C176.795380,142.032379 176.993439,146.959885 176.734146,151.863205 
	C176.517685,155.956284 169.724747,160.237488 165.590302,159.260834 
	C164.644363,159.037384 163.633621,159.104340 162.661240,158.974030 
	C156.931519,158.206131 154.169556,155.193268 154.049774,149.429520 
	C153.966995,145.446487 154.033875,141.460358 154.033875,136.691833 
	C156.179306,136.913834 158.147141,137.117447 160.185913,137.698044 
z"/>
<path fill="#F6F6F6" opacity="1.000000" stroke="none" 
	d="
M191.035675,153.942627 
	C192.541794,153.778183 193.640091,153.608017 194.883347,153.415405 
	C194.883347,155.175278 194.883347,156.773239 194.883347,158.975739 
	C192.365860,158.975739 189.825516,159.619492 187.884872,158.815552 
	C185.362228,157.770508 181.727036,155.854446 181.369202,153.820847 
	C180.377258,148.183517 180.480743,142.260986 180.964905,136.519760 
	C181.089890,135.037674 184.210678,133.808228 186.410904,132.111343 
	C186.844971,134.050812 187.109238,135.231583 187.441895,136.717926 
	C189.915085,136.717926 192.332581,136.717926 194.950714,136.717926 
	C194.950714,138.476761 194.950714,139.902466 194.950714,141.306808 
	C192.328552,141.878891 189.820038,142.426178 186.899948,143.063263 
	C187.778900,146.924637 184.336227,151.909164 191.035675,153.942627 
z"/>
<path fill="#18181C" opacity="1.000000" stroke="none" 
	d="
M120.984711,98.094116 
	C117.628860,98.177872 114.273010,98.261627 110.207344,97.901749 
	C105.664543,97.002022 101.831566,96.545929 97.998581,96.089844 
	C100.401428,94.578690 102.957687,93.261902 105.173134,91.513306 
	C109.017075,88.479378 112.025665,90.401627 115.259628,92.586319 
	C116.883957,93.683632 118.839455,94.290718 120.833366,95.810760 
	C121.009262,97.032722 120.996986,97.563423 120.984711,98.094116 
z"/>
<path fill="#151519" opacity="1.000000" stroke="none" 
	d="
M121.063683,74.132004 
	C120.960426,74.261200 120.876007,74.413177 120.751221,74.516327 
	C113.347351,80.636818 105.855721,80.768059 98.319382,74.213737 
	C103.097908,73.376106 107.837334,72.978951 112.573433,73.015137 
	C115.406197,73.036766 118.233772,73.736870 121.063683,74.132004 
z"/>
<path fill="#272728" opacity="1.000000" stroke="none" 
	d="
M121.402283,74.096252 
	C118.233772,73.736870 115.406197,73.036766 112.573433,73.015137 
	C107.837334,72.978951 103.097908,73.376106 98.098511,73.945847 
	C96.368576,73.691139 94.900024,73.081459 93.431465,72.471779 
	C93.482750,72.223320 93.534035,71.974869 93.585320,71.726410 
	C103.973999,71.726410 114.362686,71.726410 125.565193,71.726410 
	C123.994446,72.685089 122.867661,73.372803 121.402283,74.096252 
z"/>
<path fill="#030303" opacity="1.000000" stroke="none" 
	d="
M97.606903,95.984955 
	C101.831566,96.545929 105.664543,97.002022 109.766190,97.776199 
	C104.785912,98.094276 99.536987,98.094276 92.939514,98.094276 
	C95.107216,96.971718 96.161224,96.425888 97.606903,95.984955 
z"/>
<path fill="#030303" opacity="1.000000" stroke="none" 
	d="
M121.351768,98.188187 
	C120.996986,97.563423 121.009262,97.032722 121.055405,96.105194 
	C122.248863,96.237846 123.408447,96.767342 125.635750,97.784370 
	C123.649574,98.036835 122.684196,98.159546 121.351768,98.188187 
z"/>
<path fill="#17171B" opacity="1.000000" stroke="none" 
	d="
M104.456909,142.364532 
	C107.990120,141.842331 111.256004,142.086929 111.616264,146.000687 
	C111.814339,148.152557 111.138992,151.431412 109.664032,152.418015 
	C107.934570,153.574875 104.379784,153.666138 102.603539,152.590317 
	C101.039978,151.643311 100.214531,148.434387 100.272507,146.256546 
	C100.305679,145.010834 102.753456,143.829391 104.456909,142.364532 
z"/>
<path fill="#18181D" opacity="1.000000" stroke="none" 
	d="
M75.532028,142.055786 
	C78.910378,141.808823 82.333557,141.631271 82.769806,145.440140 
	C83.038597,147.786911 82.421013,151.055222 80.884689,152.601837 
	C78.409775,155.093292 75.021614,154.469772 72.690651,151.604584 
	C70.340248,148.715500 71.575455,144.328506 75.532028,142.055786 
z"/>
</svg>