<svg xmlns="http://www.w3.org/2000/svg" width="225" height="225" viewBox="0 0 225 225">
<g>
<path d="M 204.00 130.14 C204.00,131.44 202.39,131.17 201.13,129.66 C200.52,128.92 196.38,126.36 191.94,123.97 C184.16,119.78 179.00,115.24 179.00,112.58 C179.00,110.97 185.50,109.00 190.81,109.00 C193.05,109.00 195.09,108.66 195.34,108.25 C196.05,107.08 190.91,101.55 186.50,98.75 C184.30,97.36 180.12,95.45 177.21,94.51 C174.28,93.57 171.29,91.85 170.51,90.65 C169.73,89.46 166.54,82.86 163.43,75.99 C157.01,61.81 151.38,53.33 143.97,46.66 C136.28,39.75 129.05,36.00 121.30,34.90 C117.62,34.38 113.89,33.31 113.02,32.51 C112.14,31.72 109.27,30.12 106.64,28.96 C98.09,25.18 96.60,28.42 102.96,36.95 C105.22,39.98 108.05,45.64 109.55,50.16 C111.00,54.51 113.27,59.36 114.59,60.93 C117.40,64.26 117.55,66.18 115.50,72.00 C112.55,80.35 114.93,95.98 119.28,96.81 C120.67,97.08 121.00,96.40 121.00,93.32 C121.00,89.42 123.70,82.84 125.50,82.35 C126.05,82.20 128.07,85.53 130.00,89.76 C131.93,93.98 135.41,100.04 137.75,103.22 C140.08,106.40 141.65,109.00 141.22,109.00 C139.76,109.00 129.22,97.52 127.44,94.00 L 125.68 90.50 L 124.93 93.00 C124.51,94.38 123.91,96.71 123.59,98.18 C122.89,101.36 119.92,102.59 117.14,100.85 C111.08,97.07 108.32,83.08 111.35,71.54 C112.76,66.18 112.77,65.40 111.39,63.88 C109.75,62.06 104.00,48.60 104.00,46.57 C104.00,45.90 101.97,42.74 99.50,39.55 C94.10,32.61 93.46,28.06 97.50,25.41 C100.90,23.18 106.02,24.21 113.15,28.56 C116.26,30.45 120.13,32.00 121.75,32.00 C129.33,32.00 141.58,39.51 151.53,50.25 C156.49,55.61 159.30,59.85 162.60,66.96 C173.06,89.47 172.88,89.19 179.78,92.66 C183.24,94.39 187.74,97.05 189.78,98.56 C194.39,101.96 201.00,108.17 201.00,109.09 C201.00,109.83 199.78,110.17 190.67,112.00 C184.92,113.16 184.87,113.20 186.67,115.19 C187.67,116.30 189.80,117.88 191.40,118.71 C194.73,120.43 204.00,128.84 204.00,130.14 ZM 27.50 135.50 L 26.94 160.00 L 21.00 160.00 L 21.00 131.09 L 24.59 130.10 C30.83,128.38 32.15,129.63 37.53,142.41 C40.21,148.78 42.65,154.00 42.96,154.00 C43.26,154.00 46.06,148.60 49.17,142.00 L 54.83 130.00 L 59.29 130.00 C61.88,130.00 64.24,130.58 64.91,131.39 C65.68,132.32 65.97,137.14 65.78,146.14 L 65.50 159.50 L 60.00 160.13 L 60.00 148.07 C60.00,141.43 59.64,136.00 59.19,136.00 C58.75,136.00 56.45,140.39 54.09,145.75 C48.32,158.84 47.51,160.00 44.17,160.00 C39.87,160.00 38.46,158.34 32.78,146.50 ZM 96.87 167.89 C93.47,169.08 72.77,169.44 71.67,168.33 C71.30,167.97 71.00,167.07 71.00,166.33 C71.00,165.31 73.40,165.00 81.42,165.00 C93.08,165.00 95.00,164.58 95.00,161.99 C95.00,160.43 93.86,160.15 86.07,159.85 C78.92,159.57 76.58,159.08 74.32,157.40 C71.68,155.43 71.48,154.76 71.21,147.15 L 70.92 139.00 L 78.00 139.00 L 78.00 146.98 C78.00,156.27 78.06,156.32 89.03,155.80 L 95.50 155.50 L 96.08 139.00 L 102.00 139.00 L 102.00 151.07 C102.00,157.70 101.56,163.95 101.02,164.96 C100.48,165.97 98.62,167.29 96.87,167.89 ZM 122.82 47.25 C123.23,50.88 121.87,50.74 119.61,46.92 L 117.79 43.83 L 120.14 44.17 C121.87,44.41 122.59,45.24 122.82,47.25 Z" fill="rgb(2,94,136)"/>
<path d="M 173.27 164.40 C171.90,165.77 167.97,164.84 165.18,162.50 C162.58,160.31 161.26,160.00 154.56,160.00 C146.57,160.00 141.76,158.43 140.62,155.46 C139.61,152.82 139.91,136.03 141.01,133.98 C142.37,131.44 147.99,130.01 156.60,130.01 C164.67,130.00 169.60,131.38 171.02,134.04 C171.56,135.05 172.00,140.25 172.00,145.61 C172.00,153.46 171.66,155.72 170.26,157.27 C168.59,159.11 168.63,159.29 171.20,161.49 C172.67,162.76 173.60,164.07 173.27,164.40 ZM 132.10 157.72 C129.12,159.72 127.47,160.00 118.52,160.00 C108.20,160.00 107.00,159.72 107.00,157.33 C107.00,156.32 109.22,156.00 116.31,156.00 C127.05,156.00 129.35,154.98 128.84,150.45 C128.50,147.50 128.49,147.50 120.45,147.00 C109.81,146.34 107.00,144.59 107.00,138.63 C107.00,131.51 108.85,130.57 123.69,130.14 L 136.17 129.79 L 135.83 132.14 C135.51,134.42 135.12,134.52 124.50,135.00 C113.56,135.50 113.50,135.51 113.20,138.09 C112.76,141.87 114.57,142.75 123.65,143.15 C133.79,143.59 136.25,145.27 135.80,151.42 C135.55,154.71 134.89,155.85 132.10,157.72 ZM 149.25 154.97 C151.93,156.05 155.42,156.25 156.29,155.38 C156.63,155.03 155.92,153.92 154.71,152.91 L 152.50 151.07 L 155.85 151.03 C157.69,151.01 160.44,151.89 161.96,152.97 C163.48,154.05 165.01,154.65 165.36,154.30 C166.55,153.12 166.06,136.46 164.80,135.20 C163.21,133.61 149.79,133.61 148.20,135.20 C147.45,135.95 147.00,139.70 147.00,145.23 C147.00,153.46 147.15,154.13 149.25,154.97 ZM 204.81 157.75 C204.52,159.26 203.10,159.53 194.49,159.73 C183.70,159.97 179.00,158.74 177.08,155.15 C176.49,154.04 176.00,147.93 176.00,141.57 L 176.00 130.00 L 183.00 130.00 L 183.00 141.96 C183.00,142.28 183.00,142.58 183.00,142.88 C183.00,149.61 183.00,152.89 184.63,154.49 C186.19,156.01 189.23,156.00 195.16,156.00 C195.44,156.00 195.72,156.00 196.01,156.00 C204.17,156.00 205.11,156.19 204.81,157.75 Z" fill="rgb(227,141,1)"/>
<path d="M 0.00 0.00 L 225.00 0.00 L 212.50 0.05 L 215.90 1.72 C217.77,2.64 220.47,5.09 221.90,7.16 C223.33,9.23 224.61,10.94 224.75,10.96 C224.89,10.98 225.00,8.52 225.00,5.50 L 225.00 213.70 L 222.73 217.08 C221.48,218.93 218.93,221.48 217.08,222.73 L 213.70 225.00 L 0.00 225.00 ZM 9.92 215.08 L 12.85 218.00 L 212.15 218.00 L 218.00 212.15 L 218.00 12.85 L 215.08 9.92 L 212.15 7.00 L 12.85 7.00 L 9.92 9.92 L 7.00 12.85 L 7.00 212.15 ZM 0.00 0.00 L 0.03 12.50 L 2.29 8.52 C3.55,6.29 6.29,3.55 8.52,2.29 L 12.50 0.03 ZM 0.08 218.75 L 0.00 225.00 L 11.50 224.99 L 8.39 223.10 C5.39,221.27 1.89,217.12 0.72,214.00 C0.41,213.18 0.12,215.31 0.08,218.75 Z" fill="rgb(220,220,219)"/>
<path d="M 0.08 218.75 C0.12,215.31 0.41,213.18 0.72,214.00 C1.89,217.12 5.39,221.27 8.39,223.10 L 11.50 224.99 L 5.75 225.00 L 0.00 225.00 L 0.08 218.75 ZM 217.08 222.73 C218.93,221.48 221.48,218.93 222.73,217.08 L 225.00 213.70 L 225.00 219.35 L 225.00 225.00 L 219.35 225.00 L 213.70 225.00 L 217.08 222.73 ZM 9.92 215.08 L 7.00 212.15 L 7.00 112.50 L 7.00 12.85 L 9.92 9.92 L 12.85 7.00 L 112.50 7.00 L 212.15 7.00 L 215.08 9.92 L 218.00 12.85 L 218.00 112.50 L 218.00 212.15 L 215.08 215.08 L 212.15 218.00 L 112.50 218.00 L 12.85 218.00 L 9.92 215.08 ZM 96.87 167.89 C98.62,167.29 100.48,165.97 101.02,164.96 C101.56,163.95 102.00,157.70 102.00,151.07 L 102.00 139.00 L 99.04 139.00 L 96.08 139.00 L 95.79 147.25 L 95.50 155.50 L 89.03 155.80 C78.06,156.32 78.00,156.27 78.00,146.98 L 78.00 139.00 L 74.46 139.00 L 70.92 139.00 L 71.21 147.15 C71.48,154.76 71.68,155.43 74.32,157.40 C76.58,159.08 78.92,159.57 86.07,159.85 C93.86,160.15 95.00,160.43 95.00,161.99 C95.00,164.58 93.08,165.00 81.42,165.00 C73.40,165.00 71.00,165.31 71.00,166.33 C71.00,167.07 71.30,167.97 71.67,168.33 C72.77,169.44 93.47,169.08 96.87,167.89 ZM 173.27 164.40 C173.60,164.07 172.67,162.76 171.20,161.49 C168.63,159.29 168.59,159.11 170.26,157.27 C171.66,155.72 172.00,153.46 172.00,145.61 C172.00,140.25 171.56,135.05 171.02,134.04 C169.60,131.38 164.67,130.00 156.60,130.01 C147.99,130.01 142.37,131.44 141.01,133.98 C139.91,136.03 139.61,152.82 140.62,155.46 C141.76,158.43 146.57,160.00 154.56,160.00 C161.26,160.00 162.58,160.31 165.18,162.50 C167.97,164.84 171.90,165.77 173.27,164.40 ZM 27.22 147.75 L 27.50 135.50 L 32.78 146.50 C38.46,158.34 39.87,160.00 44.17,160.00 C47.51,160.00 48.32,158.84 54.09,145.75 C56.45,140.39 58.75,136.00 59.19,136.00 C59.64,136.00 60.00,141.43 60.00,148.07 L 60.00 160.13 L 62.75 159.82 L 65.50 159.50 L 65.78 146.14 C65.97,137.14 65.68,132.32 64.91,131.39 C64.24,130.58 61.88,130.00 59.29,130.00 L 54.83 130.00 L 49.17 142.00 C46.06,148.60 43.26,154.00 42.96,154.00 C42.65,154.00 40.21,148.78 37.53,142.41 C32.15,129.63 30.83,128.38 24.59,130.10 L 21.00 131.09 L 21.00 145.55 L 21.00 160.00 L 23.97 160.00 L 26.94 160.00 L 27.22 147.75 ZM 132.10 157.72 C134.89,155.85 135.55,154.71 135.80,151.42 C136.25,145.27 133.79,143.59 123.65,143.15 C114.57,142.75 112.76,141.87 113.20,138.09 C113.50,135.51 113.56,135.50 124.50,135.00 C135.12,134.52 135.51,134.42 135.83,132.14 L 136.17 129.79 L 123.69 130.14 C108.85,130.57 107.00,131.51 107.00,138.63 C107.00,144.59 109.81,146.34 120.45,147.00 C128.49,147.50 128.50,147.50 128.84,150.45 C129.35,154.98 127.05,156.00 116.31,156.00 C109.22,156.00 107.00,156.32 107.00,157.33 C107.00,159.72 108.20,160.00 118.52,160.00 C127.47,160.00 129.12,159.72 132.10,157.72 ZM 204.81 157.75 C205.11,156.19 204.17,156.00 196.01,156.00 C182.71,156.00 183.00,156.32 183.00,141.96 L 183.00 130.00 L 179.50 130.00 L 176.00 130.00 L 176.00 141.57 C176.00,147.93 176.49,154.04 177.08,155.15 C179.00,158.74 183.70,159.97 194.49,159.73 C203.10,159.53 204.52,159.26 204.81,157.75 ZM 204.00 130.14 C204.00,128.84 194.73,120.43 191.40,118.71 C189.80,117.88 187.67,116.30 186.67,115.19 C184.87,113.20 184.92,113.16 190.67,112.00 C199.78,110.17 201.00,109.83 201.00,109.09 C201.00,108.17 194.39,101.96 189.78,98.56 C187.74,97.05 183.24,94.39 179.78,92.66 C172.88,89.19 173.06,89.47 162.60,66.96 C159.30,59.85 156.49,55.61 151.53,50.25 C141.58,39.51 129.33,32.00 121.75,32.00 C120.13,32.00 116.26,30.45 113.15,28.56 C106.02,24.21 100.90,23.18 97.50,25.41 C93.46,28.06 94.10,32.61 99.50,39.55 C101.97,42.74 104.00,45.90 104.00,46.57 C104.00,48.60 109.75,62.06 111.39,63.88 C112.77,65.40 112.76,66.18 111.35,71.54 C108.32,83.08 111.08,97.07 117.14,100.85 C119.92,102.59 122.89,101.36 123.59,98.18 C123.91,96.71 124.51,94.38 124.93,93.00 L 125.68 90.50 L 127.44 94.00 C129.22,97.52 139.76,109.00 141.22,109.00 C141.65,109.00 140.08,106.40 137.75,103.22 C135.41,100.04 131.93,93.98 130.00,89.76 C128.07,85.53 126.05,82.20 125.50,82.35 C123.70,82.84 121.00,89.42 121.00,93.32 C121.00,96.40 120.67,97.08 119.28,96.81 C114.93,95.98 112.55,80.35 115.50,72.00 C117.55,66.18 117.40,64.26 114.59,60.93 C113.27,59.36 111.00,54.51 109.55,50.16 C108.05,45.64 105.22,39.98 102.96,36.95 C96.60,28.42 98.09,25.18 106.64,28.96 C109.27,30.12 112.14,31.72 113.02,32.51 C113.89,33.31 117.62,34.38 121.30,34.90 C129.05,36.00 136.28,39.75 143.97,46.66 C151.38,53.33 157.01,61.81 163.43,75.99 C166.54,82.86 169.73,89.46 170.51,90.65 C171.29,91.85 174.28,93.57 177.21,94.51 C180.12,95.45 184.30,97.36 186.50,98.75 C190.91,101.55 196.05,107.08 195.34,108.25 C195.09,108.66 193.05,109.00 190.81,109.00 C185.50,109.00 179.00,110.97 179.00,112.58 C179.00,115.24 184.16,119.78 191.94,123.97 C196.38,126.36 200.52,128.92 201.13,129.66 C202.39,131.17 204.00,131.44 204.00,130.14 ZM 122.82 47.25 C122.59,45.24 121.87,44.41 120.14,44.17 L 117.79 43.83 L 119.61 46.92 C121.87,50.74 123.23,50.88 122.82,47.25 ZM 0.02 6.25 L 0.00 0.00 L 6.25 0.02 L 12.50 0.03 L 8.52 2.29 C6.29,3.55 3.55,6.29 2.29,8.52 L 0.03 12.50 L 0.02 6.25 ZM 221.90 7.16 C220.47,5.09 217.77,2.64 215.90,1.72 L 212.50 0.05 L 218.75 0.02 L 225.00 0.00 L 225.00 5.50 C225.00,8.52 224.89,10.98 224.75,10.96 C224.61,10.94 223.33,9.23 221.90,7.16 ZM 149.25 154.97 C147.15,154.13 147.00,153.46 147.00,145.23 C147.00,139.70 147.45,135.95 148.20,135.20 C149.79,133.61 163.21,133.61 164.80,135.20 C166.06,136.46 166.55,153.12 165.36,154.30 C165.01,154.65 163.48,154.05 161.96,152.97 C160.44,151.89 157.69,151.01 155.85,151.03 L 152.50 151.07 L 154.71 152.91 C155.92,153.92 156.63,155.03 156.29,155.38 C155.42,156.25 151.93,156.05 149.25,154.97 Z" fill="rgb(254,254,254)"/>
</g>
</svg>