<svg xmlns="http://www.w3.org/2000/svg" width="389" height="129" viewBox="0 0 389 129">
<g>
<path d="M 116.65 98.91 C107.09,104.46 98.65,108.99 97.89,108.98 C96.17,108.95 83.00,101.81 83.00,100.90 C83.00,100.54 84.30,99.70 85.90,99.04 C88.46,97.98 89.27,98.15 92.97,100.48 C95.27,101.93 97.46,102.98 97.83,102.81 C101.65,101.09 128.10,85.59 128.94,84.58 C129.68,83.68 129.96,77.26 129.77,65.01 L 129.50 46.79 L 114.09 37.89 C105.62,33.00 98.12,29.00 97.43,29.00 C96.74,29.00 89.27,33.01 80.84,37.90 L 65.50 46.80 L 65.23 65.75 L 64.96 84.70 L 70.88 87.86 C81.08,93.29 82.00,91.60 82.00,67.43 L 82.00 50.00 L 87.00 50.00 L 87.00 69.95 C87.00,92.63 86.58,94.45 80.92,96.14 C77.54,97.16 76.52,96.96 70.60,94.19 C66.98,92.50 62.90,89.99 61.51,88.60 L 59.00 86.09 L 59.00 65.54 C59.00,46.14 59.11,44.88 61.02,43.24 C65.00,39.82 95.37,23.00 97.57,23.00 C100.38,23.00 130.71,40.29 133.72,43.60 C135.87,45.97 135.95,46.74 135.87,65.78 C135.83,76.62 135.40,86.25 134.91,87.16 C134.42,88.08 126.20,93.37 116.65,98.91 Z" fill="rgb(39,22,105)"/>
<path d="M 115.79 82.01 C106.08,86.42 92.24,82.25 90.75,74.48 C90.34,72.34 90.64,72.00 92.97,72.00 C94.79,72.00 96.08,72.78 96.95,74.42 C98.50,77.30 100.61,77.97 108.23,77.99 C113.31,78.00 114.15,77.71 115.68,75.37 C117.35,72.82 117.33,72.68 115.09,70.87 C113.82,69.84 111.50,69.00 109.94,69.00 C104.35,69.00 96.65,66.74 94.34,64.43 C89.86,59.95 92.11,52.43 98.66,49.94 C102.57,48.45 111.86,48.84 115.68,50.65 C119.11,52.28 121.00,55.27 121.00,59.07 C121.00,62.05 117.45,61.44 115.03,58.04 C112.47,54.44 107.46,53.25 101.90,54.91 C98.75,55.86 98.00,56.55 98.00,58.52 C98.00,58.56 98.00,58.59 98.00,58.62 C98.00,59.26 98.00,59.73 98.18,60.13 C98.74,61.34 101.05,61.75 110.50,63.49 C116.75,64.64 118.99,65.53 120.75,67.54 C123.39,70.56 123.50,71.86 121.54,76.56 C120.49,79.08 118.87,80.61 115.79,82.01 Z" fill="rgb(117,102,174)"/>
<path d="M 184.58 80.25 L 183.78 84.00 L 168.64 83.98 C153.12,83.97 148.14,83.04 153.23,81.10 C156.07,80.02 156.70,78.07 157.32,68.50 C157.59,64.22 157.67,64.47 157.82,70.18 C157.92,73.86 157.55,78.06 157.00,79.51 L 155.99 82.15 L 163.75 81.68 C173.21,81.11 179.86,78.91 182.32,75.54 C185.63,70.99 186.27,72.32 184.58,80.25 ZM 316.78 82.44 C314.38,84.12 310.69,84.36 307.50,83.02 C306.40,82.57 304.49,82.42 303.25,82.70 C301.17,83.18 301.00,82.87 301.00,78.61 C301.00,73.09 302.95,72.42 305.66,77.00 C307.85,80.71 310.58,81.69 312.90,79.59 C315.10,77.60 319.00,77.50 319.00,79.44 C319.00,80.24 318.00,81.59 316.78,82.44 ZM 341.35 81.55 C338.70,84.01 337.44,84.18 328.75,83.27 C325.04,82.88 325.00,82.83 325.00,78.44 C325.00,76.00 325.46,74.00 326.03,74.00 C326.60,74.00 328.45,75.58 330.15,77.52 C332.94,80.70 333.60,80.98 336.87,80.39 C341.29,79.60 342.75,78.53 343.30,75.68 C343.64,73.93 343.75,74.05 343.86,76.30 C343.95,78.16 343.11,79.92 341.35,81.55 ZM 319.00 64.07 C319.00,68.78 318.11,69.00 315.16,65.00 C312.79,61.80 307.85,60.82 306.30,63.25 C305.86,63.94 304.75,64.56 303.83,64.63 C302.43,64.73 302.33,64.37 303.23,62.40 C304.63,59.32 307.02,58.65 313.61,59.47 L 319.00 60.14 ZM 343.00 64.00 C343.00,68.76 341.76,69.10 339.34,65.00 C337.95,62.65 336.87,62.00 334.34,62.00 C332.57,62.00 330.82,62.48 330.46,63.07 C330.09,63.66 329.20,63.91 328.46,63.62 C327.73,63.34 326.91,63.65 326.64,64.31 C326.28,65.19 326.14,65.18 326.08,64.25 C326.04,63.56 326.87,62.13 327.94,61.06 C329.85,59.15 330.19,59.12 340.75,59.84 C342.68,59.98 343.00,60.56 343.00,64.00 ZM 199.58 82.87 C198.89,83.99 191.67,84.31 189.25,83.34 C187.46,82.61 187.71,81.00 189.62,81.00 C190.50,81.00 192.92,79.15 194.99,76.89 C198.94,72.56 200.86,72.79 198.51,77.31 C197.31,79.64 197.33,80.09 198.71,80.86 C199.57,81.34 199.97,82.25 199.58,82.87 ZM 281.44 63.62 C280.57,63.28 278.88,63.48 277.68,64.07 C276.17,64.80 276.51,64.18 278.77,62.06 C281.35,59.64 282.92,59.00 286.29,59.00 C288.64,59.00 291.56,59.71 292.79,60.57 C296.62,63.25 293.86,64.46 288.20,62.59 C286.80,62.13 285.34,62.30 284.46,63.03 C283.67,63.69 282.31,63.95 281.44,63.62 ZM 233.50 63.16 C231.94,63.57 230.30,64.50 229.85,65.21 C229.27,66.12 229.03,65.88 229.02,64.41 C229.00,61.78 225.18,59.84 222.89,61.30 C221.00,62.49 217.58,61.48 218.50,60.01 C219.32,58.67 230.00,58.70 230.00,60.04 C230.00,60.75 230.60,60.75 231.93,60.04 C234.83,58.49 236.86,58.78 236.57,60.70 C236.44,61.64 235.05,62.74 233.50,63.16 ZM 205.00 69.00 C205.90,69.58 206.02,69.98 205.31,69.98 C202.92,70.02 202.85,67.79 205.15,65.29 C206.77,63.52 207.11,62.59 206.25,62.28 C205.56,62.03 205.00,61.15 205.00,60.31 C205.00,59.33 205.57,59.00 206.58,59.39 C207.45,59.73 209.81,60.01 211.83,60.03 L 215.50 60.07 L 213.00 62.02 C211.62,63.10 209.58,64.88 208.46,65.99 C207.35,67.10 205.77,68.01 204.96,68.02 C203.70,68.03 203.71,68.16 205.00,69.00 ZM 175.64 65.02 C175.45,68.88 175.03,72.30 174.73,72.61 C173.90,73.43 171.85,69.22 172.10,67.21 C172.21,66.27 171.98,64.75 171.58,63.83 C170.67,61.75 172.57,58.00 174.53,58.00 C175.72,58.00 175.93,59.36 175.64,65.02 ZM 271.23 65.21 C270.53,67.90 265.00,67.51 265.00,64.77 C265.00,64.28 265.45,64.16 266.00,64.50 C267.47,65.41 267.22,64.08 265.62,62.48 C264.86,61.72 263.90,61.41 263.48,61.80 C263.07,62.18 262.93,61.83 263.19,61.00 C263.45,60.17 265.09,59.36 266.84,59.19 C269.39,58.93 270.18,59.32 270.86,61.15 C271.32,62.40 271.49,64.23 271.23,65.21 ZM 297.00 69.17 C297.00,70.77 296.12,71.00 290.06,71.00 C283.55,71.00 280.63,69.96 283.00,68.50 C284.43,67.62 289.35,68.28 290.20,69.47 C290.61,70.05 291.87,69.53 293.27,68.21 C295.79,65.85 297.00,66.16 297.00,69.17 ZM 234.00 96.07 C234.00,96.58 231.86,96.99 229.25,96.97 C224.98,96.94 224.69,96.80 226.33,95.55 C227.72,94.49 228.09,93.07 227.88,89.61 C227.73,87.11 227.92,84.75 228.30,84.37 C228.69,83.98 229.01,84.98 229.01,86.58 C229.04,91.23 230.07,93.89 232.11,94.53 C233.15,94.86 234.00,95.55 234.00,96.07 ZM 183.13 52.03 C184.70,57.27 183.26,58.97 180.10,55.61 C178.28,53.67 178.04,52.80 178.88,51.23 C179.46,50.15 179.65,48.98 179.30,48.63 C178.95,48.28 179.40,48.00 180.29,48.00 C181.33,48.00 182.36,49.47 183.13,52.03 ZM 294.69 80.59 C291.09,83.68 286.00,83.83 286.00,80.83 C286.00,80.38 286.94,80.00 288.10,80.00 C289.25,80.00 291.48,79.24 293.06,78.30 C296.99,75.98 298.15,77.61 294.69,80.59 ZM 196.28 61.00 C195.42,61.00 194.22,61.63 193.61,62.40 C192.77,63.47 191.96,63.55 190.25,62.75 C186.28,60.89 187.82,60.00 195.00,60.00 C198.85,60.00 202.00,60.40 202.00,60.89 C202.00,62.24 198.59,63.28 198.19,62.06 C197.99,61.48 197.13,61.00 196.28,61.00 ZM 256.00 82.56 C256.00,84.24 251.46,84.55 250.46,82.93 C250.10,82.35 250.48,81.33 251.32,80.68 C252.15,80.03 253.04,78.60 253.30,77.50 C253.73,75.65 253.78,75.67 253.88,77.69 C253.95,78.90 254.45,80.16 255.00,80.50 C255.55,80.84 256.00,81.77 256.00,82.56 ZM 216.59 82.85 C216.20,83.48 215.01,84.00 213.94,84.00 C212.54,84.00 212.00,83.31 212.00,81.50 C212.00,80.12 212.36,79.00 212.81,79.00 C214.55,79.00 217.27,81.76 216.59,82.85 ZM 240.13 81.31 C239.37,82.24 237.39,83.00 235.72,83.00 C232.74,83.00 232.72,82.97 234.52,80.98 C235.67,79.71 236.70,79.30 237.30,79.90 C237.82,80.42 238.98,80.57 239.87,80.23 C241.29,79.71 241.32,79.85 240.13,81.31 ZM 174.63 49.49 C176.91,51.77 176.18,51.87 170.50,50.09 L 165.50 48.53 L 169.26 48.20 C171.74,47.99 173.57,48.43 174.63,49.49 ZM 222.60 95.45 C223.99,96.85 223.80,97.00 220.57,97.00 C216.50,97.00 216.14,96.53 219.02,94.99 C220.59,94.15 221.40,94.25 222.60,95.45 ZM 156.36 48.50 C156.78,49.58 156.25,50.00 154.47,50.00 C152.94,50.00 152.00,49.43 152.00,48.50 C152.00,47.67 152.85,47.00 153.89,47.00 C154.93,47.00 156.05,47.67 156.36,48.50 ZM 264.78 82.17 C264.54,82.90 263.32,83.65 262.06,83.83 C260.51,84.06 259.92,83.74 260.22,82.83 C260.46,82.10 261.68,81.35 262.94,81.17 C264.49,80.94 265.08,81.26 264.78,82.17 ZM 206.09 82.50 C206.11,83.72 203.67,84.34 202.70,83.37 C201.33,82.00 202.03,80.87 204.04,81.18 C205.16,81.36 206.09,81.95 206.09,82.50 ZM 334.00 73.50 C335.60,75.42 333.97,75.44 331.44,73.53 C329.81,72.30 329.76,72.06 331.13,72.03 C332.02,72.01 333.32,72.68 334.00,73.50 ZM 251.83 60.03 C252.49,61.95 251.54,62.96 250.00,61.97 C248.67,61.11 248.67,60.89 250.00,60.03 C250.97,59.41 251.62,59.41 251.83,60.03 Z" fill="rgb(156,147,195)"/>
<path d="M 233.50 63.16 C235.05,62.74 236.44,61.64 236.57,60.70 C236.76,59.41 235.91,58.86 234.46,59.10 C237.26,58.54 239.89,59.72 242.62,62.70 C245.23,65.55 246.00,67.26 246.00,70.23 C246.00,79.02 241.13,84.00 232.53,84.00 C229.43,84.00 229.02,84.25 229.01,86.55 C229.00,84.97 228.68,83.98 228.30,84.37 C227.92,84.75 227.73,87.11 227.88,89.61 C228.09,93.07 227.72,94.49 226.33,95.55 C224.92,96.62 224.94,96.88 227.69,96.95 C226.92,96.97 226.10,96.98 225.25,96.98 C224.13,96.97 223.15,96.97 222.30,96.96 C223.80,96.87 223.68,96.53 222.60,95.45 C221.40,94.26 220.60,94.15 219.05,94.97 C221.88,92.34 223.18,83.28 222.34,71.71 C221.82,64.52 221.36,62.73 219.83,61.91 C219.59,61.78 219.38,61.64 219.20,61.49 C220.18,61.94 221.79,61.99 222.89,61.30 C225.18,59.84 229.00,61.78 229.02,64.41 C229.03,65.88 229.27,66.12 229.85,65.21 C230.08,64.85 230.60,64.44 231.26,64.07 C229.41,66.02 228.51,71.55 229.43,76.49 C230.00,79.53 230.47,80.00 232.94,80.00 C236.34,80.00 237.00,78.64 237.00,71.61 C237.00,66.07 235.65,63.14 233.19,63.25 C233.29,63.22 233.39,63.19 233.50,63.16 ZM 156.36 48.50 C156.17,48.00 155.69,47.56 155.12,47.29 C157.29,47.14 160.88,47.15 166.71,47.25 L 181.42 47.50 L 182.42 50.13 C181.77,48.76 181.03,48.00 180.29,48.00 C179.40,48.00 178.95,48.28 179.30,48.63 C179.65,48.98 179.46,50.15 178.88,51.23 C178.05,52.78 178.28,53.65 180.04,55.54 C179.72,55.27 179.37,54.95 178.99,54.61 C175.67,51.61 174.25,51.00 170.58,51.00 C166.56,51.00 166.11,51.25 165.60,53.75 C164.91,57.20 166.18,63.23 167.70,63.73 C168.34,63.95 169.87,62.74 171.11,61.06 C171.56,60.46 171.96,59.95 172.34,59.52 C171.48,60.80 171.04,62.60 171.58,63.83 C171.98,64.75 172.21,66.27 172.10,67.21 C171.98,68.13 172.35,69.51 172.87,70.66 C172.47,70.27 172.06,69.80 171.68,69.32 C167.60,64.13 165.00,67.22 165.86,76.25 L 166.21 80.00 L 171.06 80.00 C172.97,80.00 174.65,79.84 176.11,79.51 C172.89,80.64 168.71,81.38 163.75,81.68 L 155.99 82.15 L 157.00 79.51 C157.55,78.06 157.92,73.86 157.82,70.18 C157.67,64.47 157.59,64.22 157.32,68.50 C157.07,72.36 156.82,74.98 156.42,76.80 C156.87,74.45 156.98,70.74 156.99,64.68 C157.00,53.71 156.11,50.00 153.46,50.00 C152.66,50.00 152.00,49.33 152.00,48.50 C152.00,49.43 152.94,50.00 154.47,50.00 C156.25,50.00 156.78,49.58 156.36,48.50 ZM 281.44 63.62 C282.31,63.95 283.67,63.69 284.46,63.03 C284.66,62.87 284.88,62.74 285.12,62.63 C283.94,63.30 283.00,64.66 283.00,66.12 C283.00,67.54 283.73,68.00 286.00,68.00 C288.54,68.00 289.00,67.61 289.00,65.47 C289.00,64.19 288.42,62.90 287.68,62.45 C287.85,62.49 288.03,62.54 288.20,62.59 C292.17,63.91 294.71,63.70 294.56,62.54 C295.69,64.16 296.61,66.22 296.90,67.92 C296.57,66.13 295.38,66.23 293.27,68.21 C291.87,69.53 290.61,70.05 290.20,69.47 C289.35,68.28 284.43,67.62 283.00,68.50 C280.65,69.95 283.51,70.98 289.90,71.00 C289.77,71.00 289.64,71.00 289.50,71.00 C282.61,71.00 282.00,71.17 282.00,73.05 C282.00,75.43 286.01,79.75 288.35,79.99 C288.26,80.00 288.18,80.00 288.10,80.00 C286.94,80.00 286.00,80.38 286.00,80.83 C286.00,83.83 291.09,83.68 294.69,80.59 C297.37,78.28 297.28,76.79 295.28,77.31 C295.93,77.12 296.43,77.09 296.61,77.28 C297.66,78.32 294.84,81.17 291.28,82.65 C285.96,84.88 280.29,84.01 276.95,80.45 C275.69,79.10 274.99,78.00 275.40,78.00 C275.81,78.00 275.44,77.29 274.57,76.43 C272.78,74.64 272.48,70.44 274.07,69.46 C274.66,69.09 274.91,68.22 274.64,67.51 C273.95,65.71 276.59,62.26 280.01,60.49 C280.61,60.18 281.29,59.92 282.02,59.71 C280.97,60.18 279.98,60.93 278.77,62.06 C276.51,64.18 276.17,64.80 277.68,64.07 C278.88,63.48 280.57,63.28 281.44,63.62 ZM 256.00 82.56 C256.00,81.77 255.55,80.84 255.00,80.50 C254.45,80.16 253.95,78.90 253.88,77.69 C253.78,75.67 253.73,75.65 253.30,77.50 C253.11,78.31 252.58,79.30 251.98,80.02 C252.72,78.81 253.03,76.42 253.11,71.64 C253.23,65.23 253.05,63.59 251.02,62.35 C251.91,62.40 252.33,61.47 251.83,60.03 C251.76,59.83 251.65,59.70 251.50,59.63 C252.71,59.40 254.16,59.33 255.50,59.54 C259.77,60.20 261.05,60.25 264.96,59.62 C264.04,59.98 263.35,60.49 263.19,61.00 C262.93,61.83 263.07,62.18 263.48,61.80 C263.90,61.41 264.86,61.72 265.62,62.48 C267.22,64.08 267.47,65.41 266.00,64.50 C265.45,64.16 265.00,64.28 265.00,64.77 C265.00,65.36 265.25,65.83 265.65,66.20 C265.52,66.10 265.39,65.99 265.27,65.87 C264.64,65.24 263.43,65.01 262.57,65.34 C261.35,65.80 261.00,67.50 261.00,72.90 C261.00,79.05 261.24,79.94 263.06,80.52 C263.51,80.66 263.90,80.88 264.19,81.13 C263.88,81.07 263.47,81.09 262.94,81.17 C261.68,81.35 260.46,82.10 260.22,82.83 C260.13,83.11 260.12,83.33 260.19,83.50 C258.55,83.65 256.68,83.71 255.03,83.67 C255.61,83.43 256.00,83.05 256.00,82.56 ZM 205.00 69.00 C203.71,68.16 203.70,68.03 204.96,68.02 C205.77,68.01 207.35,67.10 208.46,65.99 C208.76,65.70 209.11,65.36 209.50,65.01 C207.30,67.09 206.00,68.83 206.00,69.79 C206.00,70.53 208.48,73.61 211.51,76.64 C212.45,77.58 213.31,78.50 214.04,79.35 C213.61,79.13 213.19,79.00 212.81,79.00 C212.36,79.00 212.00,80.12 212.00,81.50 C212.00,82.73 212.25,83.44 212.85,83.77 C210.53,83.88 207.55,83.79 205.35,83.53 C205.79,83.29 206.10,82.93 206.09,82.50 C206.09,81.95 205.16,81.36 204.04,81.18 C203.52,81.10 203.08,81.11 202.75,81.21 C202.86,81.10 202.98,81.01 203.12,80.92 C204.23,80.23 204.07,79.63 202.26,77.82 C200.06,75.61 200.01,75.61 198.56,77.54 C198.35,77.82 198.18,78.06 198.04,78.28 C198.16,78.00 198.32,77.68 198.51,77.31 C200.86,72.79 198.94,72.56 194.99,76.89 C193.81,78.18 192.51,79.34 191.45,80.09 C194.07,78.19 198.00,73.85 198.00,72.42 C198.00,71.76 195.75,68.83 193.00,65.90 C191.86,64.69 190.81,63.55 189.97,62.61 C190.06,62.66 190.15,62.70 190.25,62.75 C191.96,63.55 192.77,63.47 193.61,62.40 C194.22,61.63 195.42,61.00 196.28,61.00 C197.13,61.00 197.99,61.48 198.19,62.06 C198.42,62.77 199.69,62.71 200.70,62.27 C200.64,62.69 200.98,63.56 201.63,64.56 L 203.31 67.13 L 205.41 64.95 C205.60,64.75 205.77,64.57 205.92,64.39 C205.70,64.66 205.45,64.96 205.15,65.29 C202.85,67.79 202.92,70.02 205.31,69.98 C206.02,69.98 205.90,69.58 205.00,69.00 ZM 341.35 81.55 C343.11,79.92 343.95,78.16 343.86,76.30 C343.75,74.05 343.64,73.93 343.30,75.68 C342.75,78.53 341.29,79.60 336.87,80.39 C336.40,80.48 335.99,80.54 335.61,80.59 C337.95,79.50 337.14,76.98 333.79,75.20 C329.07,72.69 325.00,68.45 325.00,66.03 C325.00,64.86 326.08,62.83 327.40,61.51 C328.05,60.86 328.53,60.38 329.09,60.05 C330.60,59.15 332.74,59.29 340.68,59.84 C330.19,59.12 329.85,59.15 327.94,61.06 C326.87,62.13 326.04,63.56 326.08,64.25 C326.14,65.18 326.28,65.19 326.64,64.31 C326.91,63.65 327.73,63.34 328.46,63.62 C329.20,63.91 330.09,63.66 330.46,63.07 C330.82,62.48 332.57,62.00 334.34,62.00 C334.41,62.00 334.47,62.00 334.53,62.00 C330.66,62.06 331.77,64.03 337.43,67.12 C343.07,70.21 343.96,71.39 343.98,75.80 C344.00,78.09 343.20,79.84 341.35,81.55 ZM 310.34 62.00 C306.42,62.05 307.71,64.52 313.00,67.00 C315.75,68.29 318.00,69.94 318.00,70.67 C318.00,71.40 318.45,72.00 319.00,72.00 C320.64,72.00 320.36,76.24 318.99,79.30 C318.81,77.51 315.05,77.65 312.90,79.59 C312.73,79.74 312.56,79.88 312.39,80.00 C313.81,78.34 312.23,76.16 308.06,74.03 C302.73,71.31 300.36,67.72 301.60,64.20 C302.24,62.38 303.29,61.07 304.84,60.26 C304.16,60.77 303.65,61.48 303.23,62.40 C302.33,64.37 302.43,64.73 303.83,64.63 C304.75,64.56 305.86,63.94 306.30,63.25 C307.06,62.06 308.65,61.69 310.34,62.00 ZM 240.13 81.31 C241.32,79.85 241.29,79.71 239.87,80.23 C238.98,80.57 237.82,80.42 237.30,79.90 C236.70,79.30 235.67,79.71 234.52,80.98 C232.72,82.97 232.74,83.00 235.72,83.00 C237.39,83.00 239.37,82.24 240.13,81.31 ZM 174.63 49.49 C173.57,48.43 171.74,47.99 169.26,48.20 L 165.50 48.53 L 170.50 50.09 C176.18,51.87 176.91,51.77 174.63,49.49 ZM 334.00 73.50 C333.32,72.68 332.02,72.01 331.13,72.03 C329.76,72.06 329.81,72.30 331.44,73.53 C333.97,75.44 335.60,75.42 334.00,73.50 ZM 188.34 60.75 C188.12,60.49 188.00,60.32 188.00,60.29 C188.00,60.13 191.15,60.00 195.00,60.00 C191.23,60.00 189.01,60.25 188.34,60.75 ZM 287.38 59.05 C289.20,59.09 290.90,59.41 292.06,60.03 C292.37,60.20 292.69,60.43 293.01,60.73 C292.94,60.67 292.87,60.62 292.79,60.57 C291.75,59.84 289.48,59.21 287.38,59.05 ZM 333.65 80.48 C332.60,80.16 331.71,79.29 330.15,77.52 C329.83,77.16 329.51,76.80 329.19,76.47 C329.56,76.85 329.95,77.25 330.33,77.67 C331.65,79.11 332.75,80.04 333.65,80.48 ZM 199.18 81.20 C199.04,81.07 198.88,80.95 198.71,80.86 C197.99,80.45 197.64,80.14 197.64,79.60 C197.75,79.94 198.08,80.25 198.65,80.68 C198.85,80.84 199.03,81.01 199.18,81.20 ZM 249.38 61.54 C248.41,61.05 248.87,60.47 250.00,60.03 C248.92,60.73 248.72,61.00 249.38,61.54 ZM 182.91 74.75 C184.11,73.04 184.88,72.48 185.23,73.07 C184.87,72.65 184.10,73.23 182.91,74.75 ZM 313.36 83.76 C311.54,84.11 309.53,83.87 307.50,83.02 C309.40,83.82 311.48,84.06 313.36,83.76 ZM 218.51 59.98 C218.52,59.97 218.52,59.96 218.53,59.95 C218.94,59.29 221.89,58.99 224.70,59.02 C221.92,59.00 218.99,59.32 218.51,59.98 ZM 308.98 80.38 C307.82,79.87 306.68,78.73 305.66,77.00 C306.61,78.61 307.81,79.78 308.98,80.38 ZM 199.54 82.93 C199.19,83.50 196.98,83.85 194.63,83.90 C196.95,83.84 199.15,83.48 199.56,82.90 C199.56,82.91 199.55,82.92 199.54,82.93 ZM 201.26 61.96 C201.67,61.68 201.96,61.34 202.00,60.97 C202.00,60.98 202.00,60.99 202.00,61.00 C202.00,61.45 201.69,61.84 201.26,61.96 ZM 154.22 80.63 C153.92,80.81 153.59,80.96 153.23,81.10 C150.82,82.02 150.67,82.71 152.82,83.19 C154.96,83.65 159.33,83.91 165.95,83.97 C159.31,83.91 154.95,83.65 152.82,83.19 C150.66,82.72 150.78,82.03 153.15,81.13 C153.54,80.98 153.90,80.82 154.22,80.63 ZM 326.01 74.00 C325.45,74.05 325.00,76.03 325.00,78.44 C325.00,76.00 325.44,74.00 325.99,74.00 C325.99,74.00 326.00,74.00 326.01,74.00 ZM 173.85 58.15 C174.22,57.94 174.53,57.89 174.79,58.02 C174.71,58.01 174.62,58.00 174.53,58.00 C174.30,58.00 174.08,58.05 173.85,58.15 ZM 336.85 62.41 C337.81,62.83 338.53,63.62 339.34,65.00 C338.55,63.66 337.79,62.84 336.85,62.41 ZM 250.43 82.88 C250.42,82.87 250.41,82.86 250.40,82.85 C250.22,82.55 250.27,82.14 250.49,81.71 C250.30,82.14 250.26,82.56 250.43,82.88 ZM 206.58 62.49 C206.50,62.42 206.39,62.35 206.25,62.30 C205.65,62.08 205.14,61.36 205.03,60.63 C205.14,61.36 205.65,62.06 206.25,62.28 C206.40,62.33 206.51,62.40 206.58,62.49 ZM 293.55 70.95 C295.15,70.87 296.03,70.72 296.50,70.39 C296.04,70.72 295.17,70.88 293.55,70.95 ZM 216.48 83.01 C216.47,83.03 216.47,83.06 216.45,83.08 C216.41,83.15 216.32,83.22 216.19,83.28 C216.30,83.19 216.40,83.10 216.48,83.01 ZM 182.71 57.34 C182.94,57.35 183.13,57.28 183.29,57.15 C183.13,57.31 182.95,57.38 182.71,57.34 ZM 229.90 92.29 C230.42,93.48 231.16,94.23 232.11,94.53 C231.15,94.23 230.41,93.48 229.90,92.29 ZM 264.72 82.33 C264.70,82.39 264.66,82.45 264.60,82.51 C264.66,82.43 264.70,82.35 264.74,82.28 C264.73,82.30 264.73,82.32 264.72,82.33 ZM 297.00 69.05 C297.00,68.74 296.98,68.46 296.95,68.22 C296.98,68.47 297.00,68.72 297.00,68.95 C297.00,68.98 297.00,69.02 297.00,69.05 ZM 312.38 59.33 C312.68,59.36 312.98,59.39 313.30,59.43 L 313.60 59.47 C313.17,59.42 312.77,59.37 312.38,59.33 Z" fill="rgb(161,148,210)"/>
<path d="M 0.00 64.50 L 0.00 0.00 L 194.50 0.00 L 389.00 0.00 L 389.00 64.50 L 389.00 129.00 L 194.50 129.00 L 0.00 129.00 L 0.00 64.50 ZM 116.65 98.91 C126.20,93.37 134.42,88.08 134.91,87.16 C135.40,86.25 135.83,76.62 135.87,65.78 C135.95,46.74 135.87,45.97 133.72,43.60 C130.71,40.29 100.38,23.00 97.57,23.00 C95.37,23.00 65.00,39.82 61.02,43.24 C59.11,44.88 59.00,46.14 59.00,65.54 L 59.00 86.09 L 61.51 88.60 C62.90,89.99 66.98,92.50 70.60,94.19 C76.52,96.96 77.54,97.16 80.92,96.14 C86.58,94.45 87.00,92.63 87.00,69.95 L 87.00 50.00 L 84.50 50.00 L 82.00 50.00 L 82.00 67.43 C82.00,91.60 81.08,93.29 70.88,87.86 L 64.96 84.70 L 65.23 65.75 L 65.50 46.80 L 80.84 37.90 C89.27,33.01 96.74,29.00 97.43,29.00 C98.12,29.00 105.62,33.00 114.09,37.89 L 129.50 46.79 L 129.77 65.01 C129.96,77.26 129.68,83.68 128.94,84.58 C128.10,85.59 101.65,101.09 97.83,102.81 C97.46,102.98 95.27,101.93 92.97,100.48 C89.27,98.15 88.46,97.98 85.90,99.04 C84.30,99.70 83.00,100.54 83.00,100.90 C83.00,101.81 96.17,108.95 97.89,108.98 C98.65,108.99 107.09,104.46 116.65,98.91 ZM 234.00 96.07 C234.00,95.55 233.15,94.86 232.11,94.53 C230.09,93.90 229.04,91.23 229.01,86.75 C229.00,84.27 229.34,84.00 232.53,84.00 C241.13,84.00 246.00,79.02 246.00,70.23 C246.00,67.26 245.23,65.55 242.62,62.70 C239.08,58.84 235.73,58.00 231.93,60.04 C230.60,60.75 230.00,60.75 230.00,60.04 C230.00,58.73 219.33,58.65 218.53,59.95 C218.21,60.47 218.79,61.35 219.83,61.91 C221.36,62.73 221.82,64.52 222.34,71.71 C223.20,83.62 221.81,92.87 218.80,95.19 C216.55,96.92 216.68,96.96 225.25,96.98 C230.06,96.99 234.00,96.58 234.00,96.07 ZM 115.79 82.01 C118.87,80.61 120.49,79.08 121.54,76.56 C123.50,71.86 123.39,70.56 120.75,67.54 C118.99,65.53 116.75,64.64 110.50,63.49 C97.84,61.15 98.00,61.22 98.00,58.52 C98.00,56.55 98.75,55.86 101.90,54.91 C107.46,53.25 112.47,54.44 115.03,58.04 C117.45,61.44 121.00,62.05 121.00,59.07 C121.00,55.27 119.11,52.28 115.68,50.65 C111.86,48.84 102.57,48.45 98.66,49.94 C92.11,52.43 89.86,59.95 94.34,64.43 C96.65,66.74 104.35,69.00 109.94,69.00 C111.50,69.00 113.82,69.84 115.09,70.87 C117.33,72.68 117.35,72.82 115.68,75.37 C114.15,77.71 113.31,78.00 108.23,77.99 C100.61,77.97 98.50,77.30 96.95,74.42 C96.08,72.78 94.79,72.00 92.97,72.00 C90.64,72.00 90.34,72.34 90.75,74.48 C92.24,82.25 106.08,86.42 115.79,82.01 ZM 184.58 80.25 C186.23,72.50 185.50,70.78 182.51,75.35 C180.41,78.54 176.83,80.00 171.06,80.00 L 166.21 80.00 L 165.86 76.25 C165.00,67.22 167.60,64.13 171.68,69.32 C172.68,70.59 173.90,71.72 174.39,71.82 C174.89,71.93 175.45,68.86 175.64,65.01 C176.05,57.01 174.87,55.98 171.11,61.06 C169.87,62.74 168.34,63.95 167.70,63.73 C166.18,63.23 164.91,57.20 165.60,53.75 C166.11,51.25 166.56,51.00 170.58,51.00 C174.25,51.00 175.67,51.61 178.99,54.61 C182.33,57.63 183.08,57.95 183.61,56.57 C183.96,55.67 183.61,53.25 182.83,51.21 L 181.42 47.50 L 166.71 47.25 C154.20,47.04 152.00,47.23 152.00,48.50 C152.00,49.33 152.66,50.00 153.46,50.00 C156.11,50.00 157.00,53.71 156.99,64.68 C156.97,77.77 156.48,79.87 153.15,81.13 C148.14,83.04 153.20,83.97 168.64,83.98 L 183.78 84.00 L 184.58 80.25 ZM 199.54 82.93 C199.90,82.35 199.50,81.33 198.65,80.68 C197.27,79.64 197.26,79.27 198.56,77.54 C200.01,75.61 200.06,75.61 202.26,77.82 C204.07,79.63 204.23,80.23 203.12,80.92 C202.36,81.39 202.00,82.20 202.32,82.71 C203.08,83.94 215.72,84.26 216.45,83.08 C216.77,82.57 214.54,79.67 211.51,76.64 C208.48,73.61 206.00,70.53 206.00,69.79 C206.00,68.40 208.74,65.36 213.00,62.02 L 215.50 60.07 L 211.83 60.03 C209.81,60.01 207.45,59.73 206.58,59.39 C205.57,59.00 205.00,59.33 205.00,60.31 C205.00,61.15 205.56,62.04 206.25,62.30 C207.13,62.63 206.88,63.41 205.41,64.95 L 203.31 67.13 L 201.63 64.56 C200.71,63.15 200.41,62.00 200.98,62.00 C201.54,62.00 202.00,61.55 202.00,61.00 C202.00,60.43 199.00,60.00 195.00,60.00 C191.15,60.00 188.00,60.13 188.00,60.29 C188.00,60.45 190.25,62.97 193.00,65.90 C195.75,68.83 198.00,71.76 198.00,72.42 C198.00,74.27 191.42,81.00 189.62,81.00 C187.71,81.00 187.46,82.61 189.25,83.34 C191.60,84.29 198.88,84.00 199.54,82.93 ZM 264.72 82.33 C264.94,81.69 264.19,80.88 263.06,80.52 C261.24,79.94 261.00,79.05 261.00,72.90 C261.00,67.50 261.35,65.80 262.57,65.34 C263.43,65.01 264.64,65.24 265.27,65.87 C267.03,67.63 270.71,67.22 271.23,65.21 C271.49,64.23 271.32,62.38 270.84,61.10 C270.09,59.06 269.53,58.86 266.24,59.41 C261.27,60.25 260.20,60.26 255.50,59.54 C251.77,58.96 247.13,60.55 249.50,61.59 C252.97,63.12 253.25,63.90 253.11,71.64 C253.01,77.53 252.57,79.80 251.39,80.68 C250.51,81.33 250.07,82.31 250.40,82.85 C251.27,84.24 264.24,83.78 264.72,82.33 ZM 291.28 82.65 C294.84,81.17 297.66,78.32 296.61,77.28 C296.24,76.91 294.65,77.37 293.06,78.30 C291.48,79.24 289.45,80.00 288.55,80.00 C286.24,80.00 282.00,75.49 282.00,73.05 C282.00,71.17 282.61,71.00 289.50,71.00 C296.39,71.00 297.00,70.83 297.00,68.95 C297.00,66.06 294.33,61.25 292.06,60.03 C289.27,58.54 283.35,58.77 280.01,60.49 C276.59,62.26 273.95,65.71 274.64,67.51 C274.91,68.22 274.66,69.09 274.07,69.46 C272.48,70.44 272.78,74.64 274.57,76.43 C275.44,77.29 275.81,78.00 275.40,78.00 C274.99,78.00 275.69,79.10 276.95,80.45 C280.29,84.01 285.96,84.88 291.28,82.65 ZM 317.55 81.55 C320.04,79.05 321.12,72.00 319.00,72.00 C318.45,72.00 318.00,71.40 318.00,70.67 C318.00,69.94 315.75,68.29 313.00,67.00 C307.66,64.50 306.39,62.00 310.47,62.00 C312.06,62.00 313.73,63.07 315.16,65.00 C318.11,69.00 319.00,68.78 319.00,64.07 L 319.00 60.14 L 313.30 59.43 C306.64,58.60 303.05,60.06 301.60,64.20 C300.36,67.72 302.73,71.31 308.06,74.03 C312.37,76.23 313.91,78.49 312.23,80.17 C310.63,81.77 307.62,80.31 305.66,77.00 C302.95,72.42 301.00,73.09 301.00,78.61 C301.00,82.87 301.17,83.18 303.25,82.70 C304.49,82.42 306.40,82.57 307.50,83.02 C311.30,84.61 315.03,84.06 317.55,81.55 ZM 341.35 81.55 C343.20,79.84 344.00,78.09 343.98,75.80 C343.96,71.39 343.07,70.21 337.43,67.12 C331.69,63.98 330.63,62.00 334.70,62.00 C336.83,62.00 338.03,62.78 339.34,65.00 C341.76,69.10 343.00,68.76 343.00,64.00 C343.00,60.56 342.68,59.98 340.75,59.84 C329.80,59.09 329.82,59.09 327.40,61.51 C326.08,62.83 325.00,64.86 325.00,66.03 C325.00,68.45 329.07,72.69 333.79,75.20 C337.26,77.04 338.00,79.68 335.35,80.70 C334.22,81.13 332.61,80.15 330.33,77.67 C328.48,75.65 326.53,74.00 325.99,74.00 C325.44,74.00 325.00,76.00 325.00,78.44 C325.00,82.83 325.04,82.88 328.75,83.27 C337.44,84.18 338.70,84.01 341.35,81.55 ZM 229.43 76.49 C228.36,70.75 229.75,64.21 232.23,63.43 C235.29,62.46 237.00,65.38 237.00,71.61 C237.00,78.64 236.34,80.00 232.94,80.00 C230.47,80.00 230.00,79.53 229.43,76.49 ZM 283.00 66.12 C283.00,63.72 285.53,61.60 287.49,62.36 C288.32,62.68 289.00,64.08 289.00,65.47 C289.00,67.61 288.54,68.00 286.00,68.00 C283.73,68.00 283.00,67.54 283.00,66.12 Z" fill="rgb(246,245,246)"/>
</g>
</svg>